<?xml version="1.0" encoding="utf-8" standalone="no"?>
<!DOCTYPE svg PUBLIC "-//W3C//DTD SVG 1.1//EN"
  "http://www.w3.org/Graphics/SVG/1.1/DTD/svg11.dtd">
<svg xmlns:xlink="http://www.w3.org/1999/xlink" width="1080pt" height="288pt" viewBox="0 0 1080 288" xmlns="http://www.w3.org/2000/svg" version="1.1">
 <metadata>
  <rdf:RDF xmlns:dc="http://purl.org/dc/elements/1.1/" xmlns:cc="http://creativecommons.org/ns#" xmlns:rdf="http://www.w3.org/1999/02/22-rdf-syntax-ns#">
   <cc:Work>
    <dc:type rdf:resource="http://purl.org/dc/dcmitype/StillImage"/>
    <dc:date>2026-04-11T14:39:04.062609</dc:date>
    <dc:format>image/svg+xml</dc:format>
    <dc:creator>
     <cc:Agent>
      <dc:title>Matplotlib v3.9.2, https://matplotlib.org/</dc:title>
     </cc:Agent>
    </dc:creator>
   </cc:Work>
  </rdf:RDF>
 </metadata>
 <defs>
  <style type="text/css">*{stroke-linejoin: round; stroke-linecap: butt}</style>
 </defs>
 <g id="figure_1">
  <g id="patch_1">
   <path d="M 0 288 
L 1080 288 
L 1080 0 
L 0 0 
z
" style="fill: #f0f0f0"/>
  </g>
  <g id="axes_1">
   <g id="patch_2">
    <path d="M 34.97 255.46 
L 1067.04 255.46 
L 1067.04 41.233178 
L 34.97 41.233178 
z
" style="fill: #ffffff"/>
   </g>
   <g id="matplotlib.axis_1">
    <g id="xtick_1">
     <g id="line2d_1">
      <defs>
       <path id="m3c0e45981a" d="M 0 0 
L 0 6 
" style="stroke: #262626; stroke-width: 1.25"/>
      </defs>
      <g>
       <use xlink:href="#m3c0e45981a" x="551.005" y="255.46" style="fill: #262626; stroke: #262626; stroke-width: 1.25"/>
      </g>
     </g>
     <g id="text_1">
      <!-- MedHouseVal -->
      <g style="fill: #262626" transform="translate(516.865469 272.833594) scale(0.11 -0.11)">
       <defs>
        <path id="ArialMT-4d" d="M 475 0 
L 475 4581 
L 1388 4581 
L 2472 1338 
Q 2622 884 2691 659 
Q 2769 909 2934 1394 
L 4031 4581 
L 4847 4581 
L 4847 0 
L 4263 0 
L 4263 3834 
L 2931 0 
L 2384 0 
L 1059 3900 
L 1059 0 
L 475 0 
z
" transform="scale(0.015625)"/>
        <path id="ArialMT-65" d="M 2694 1069 
L 3275 997 
Q 3138 488 2766 206 
Q 2394 -75 1816 -75 
Q 1088 -75 661 373 
Q 234 822 234 1631 
Q 234 2469 665 2931 
Q 1097 3394 1784 3394 
Q 2450 3394 2872 2941 
Q 3294 2488 3294 1666 
Q 3294 1616 3291 1516 
L 816 1516 
Q 847 969 1125 678 
Q 1403 388 1819 388 
Q 2128 388 2347 550 
Q 2566 713 2694 1069 
z
M 847 1978 
L 2700 1978 
Q 2663 2397 2488 2606 
Q 2219 2931 1791 2931 
Q 1403 2931 1139 2672 
Q 875 2413 847 1978 
z
" transform="scale(0.015625)"/>
        <path id="ArialMT-64" d="M 2575 0 
L 2575 419 
Q 2259 -75 1647 -75 
Q 1250 -75 917 144 
Q 584 363 401 755 
Q 219 1147 219 1656 
Q 219 2153 384 2558 
Q 550 2963 881 3178 
Q 1213 3394 1622 3394 
Q 1922 3394 2156 3267 
Q 2391 3141 2538 2938 
L 2538 4581 
L 3097 4581 
L 3097 0 
L 2575 0 
z
M 797 1656 
Q 797 1019 1065 703 
Q 1334 388 1700 388 
Q 2069 388 2326 689 
Q 2584 991 2584 1609 
Q 2584 2291 2321 2609 
Q 2059 2928 1675 2928 
Q 1300 2928 1048 2622 
Q 797 2316 797 1656 
z
" transform="scale(0.015625)"/>
        <path id="ArialMT-48" d="M 513 0 
L 513 4581 
L 1119 4581 
L 1119 2700 
L 3500 2700 
L 3500 4581 
L 4106 4581 
L 4106 0 
L 3500 0 
L 3500 2159 
L 1119 2159 
L 1119 0 
L 513 0 
z
" transform="scale(0.015625)"/>
        <path id="ArialMT-6f" d="M 213 1659 
Q 213 2581 725 3025 
Q 1153 3394 1769 3394 
Q 2453 3394 2887 2945 
Q 3322 2497 3322 1706 
Q 3322 1066 3130 698 
Q 2938 331 2570 128 
Q 2203 -75 1769 -75 
Q 1072 -75 642 372 
Q 213 819 213 1659 
z
M 791 1659 
Q 791 1022 1069 705 
Q 1347 388 1769 388 
Q 2188 388 2466 706 
Q 2744 1025 2744 1678 
Q 2744 2294 2464 2611 
Q 2184 2928 1769 2928 
Q 1347 2928 1069 2612 
Q 791 2297 791 1659 
z
" transform="scale(0.015625)"/>
        <path id="ArialMT-75" d="M 2597 0 
L 2597 488 
Q 2209 -75 1544 -75 
Q 1250 -75 995 37 
Q 741 150 617 320 
Q 494 491 444 738 
Q 409 903 409 1263 
L 409 3319 
L 972 3319 
L 972 1478 
Q 972 1038 1006 884 
Q 1059 663 1231 536 
Q 1403 409 1656 409 
Q 1909 409 2131 539 
Q 2353 669 2445 892 
Q 2538 1116 2538 1541 
L 2538 3319 
L 3100 3319 
L 3100 0 
L 2597 0 
z
" transform="scale(0.015625)"/>
        <path id="ArialMT-73" d="M 197 991 
L 753 1078 
Q 800 744 1014 566 
Q 1228 388 1613 388 
Q 2000 388 2187 545 
Q 2375 703 2375 916 
Q 2375 1106 2209 1216 
Q 2094 1291 1634 1406 
Q 1016 1563 777 1677 
Q 538 1791 414 1992 
Q 291 2194 291 2438 
Q 291 2659 392 2848 
Q 494 3038 669 3163 
Q 800 3259 1026 3326 
Q 1253 3394 1513 3394 
Q 1903 3394 2198 3281 
Q 2494 3169 2634 2976 
Q 2775 2784 2828 2463 
L 2278 2388 
Q 2241 2644 2061 2787 
Q 1881 2931 1553 2931 
Q 1166 2931 1000 2803 
Q 834 2675 834 2503 
Q 834 2394 903 2306 
Q 972 2216 1119 2156 
Q 1203 2125 1616 2013 
Q 2213 1853 2448 1751 
Q 2684 1650 2818 1456 
Q 2953 1263 2953 975 
Q 2953 694 2789 445 
Q 2625 197 2315 61 
Q 2006 -75 1616 -75 
Q 969 -75 630 194 
Q 291 463 197 991 
z
" transform="scale(0.015625)"/>
        <path id="ArialMT-56" d="M 1803 0 
L 28 4581 
L 684 4581 
L 1875 1253 
Q 2019 853 2116 503 
Q 2222 878 2363 1253 
L 3600 4581 
L 4219 4581 
L 2425 0 
L 1803 0 
z
" transform="scale(0.015625)"/>
        <path id="ArialMT-61" d="M 2588 409 
Q 2275 144 1986 34 
Q 1697 -75 1366 -75 
Q 819 -75 525 192 
Q 231 459 231 875 
Q 231 1119 342 1320 
Q 453 1522 633 1644 
Q 813 1766 1038 1828 
Q 1203 1872 1538 1913 
Q 2219 1994 2541 2106 
Q 2544 2222 2544 2253 
Q 2544 2597 2384 2738 
Q 2169 2928 1744 2928 
Q 1347 2928 1158 2789 
Q 969 2650 878 2297 
L 328 2372 
Q 403 2725 575 2942 
Q 747 3159 1072 3276 
Q 1397 3394 1825 3394 
Q 2250 3394 2515 3294 
Q 2781 3194 2906 3042 
Q 3031 2891 3081 2659 
Q 3109 2516 3109 2141 
L 3109 1391 
Q 3109 606 3145 398 
Q 3181 191 3288 0 
L 2700 0 
Q 2613 175 2588 409 
z
M 2541 1666 
Q 2234 1541 1622 1453 
Q 1275 1403 1131 1340 
Q 988 1278 909 1158 
Q 831 1038 831 891 
Q 831 666 1001 516 
Q 1172 366 1500 366 
Q 1825 366 2078 508 
Q 2331 650 2450 897 
Q 2541 1088 2541 1459 
L 2541 1666 
z
" transform="scale(0.015625)"/>
        <path id="ArialMT-6c" d="M 409 0 
L 409 4581 
L 972 4581 
L 972 0 
L 409 0 
z
" transform="scale(0.015625)"/>
       </defs>
       <use xlink:href="#ArialMT-4d"/>
       <use xlink:href="#ArialMT-65" x="83.300781"/>
       <use xlink:href="#ArialMT-64" x="138.916016"/>
       <use xlink:href="#ArialMT-48" x="194.53125"/>
       <use xlink:href="#ArialMT-6f" x="266.748047"/>
       <use xlink:href="#ArialMT-75" x="322.363281"/>
       <use xlink:href="#ArialMT-73" x="377.978516"/>
       <use xlink:href="#ArialMT-65" x="427.978516"/>
       <use xlink:href="#ArialMT-56" x="483.59375"/>
       <use xlink:href="#ArialMT-61" x="542.917969"/>
       <use xlink:href="#ArialMT-6c" x="598.533203"/>
      </g>
     </g>
    </g>
   </g>
   <g id="matplotlib.axis_2">
    <g id="ytick_1">
     <g id="line2d_2">
      <defs>
       <path id="m87ff9ee119" d="M 0 0 
L -6 0 
" style="stroke: #262626; stroke-width: 1.25"/>
      </defs>
      <g>
       <use xlink:href="#m87ff9ee119" x="34.97" y="248.312332" style="fill: #262626; stroke: #262626; stroke-width: 1.25"/>
      </g>
     </g>
     <g id="text_2">
      <!-- −2 -->
      <g style="fill: #262626" transform="translate(12.928281 252.249129) scale(0.11 -0.11)">
       <defs>
        <path id="ArialMT-2212" d="M 3381 1997 
L 356 1997 
L 356 2522 
L 3381 2522 
L 3381 1997 
z
" transform="scale(0.015625)"/>
        <path id="ArialMT-32" d="M 3222 541 
L 3222 0 
L 194 0 
Q 188 203 259 391 
Q 375 700 629 1000 
Q 884 1300 1366 1694 
Q 2113 2306 2375 2664 
Q 2638 3022 2638 3341 
Q 2638 3675 2398 3904 
Q 2159 4134 1775 4134 
Q 1369 4134 1125 3890 
Q 881 3647 878 3216 
L 300 3275 
Q 359 3922 746 4261 
Q 1134 4600 1788 4600 
Q 2447 4600 2831 4234 
Q 3216 3869 3216 3328 
Q 3216 3053 3103 2787 
Q 2991 2522 2730 2228 
Q 2469 1934 1863 1422 
Q 1356 997 1212 845 
Q 1069 694 975 541 
L 3222 541 
z
" transform="scale(0.015625)"/>
       </defs>
       <use xlink:href="#ArialMT-2212"/>
       <use xlink:href="#ArialMT-32" x="58.398438"/>
      </g>
     </g>
    </g>
    <g id="ytick_2">
     <g id="line2d_3">
      <g>
       <use xlink:href="#m87ff9ee119" x="34.97" y="207.323857" style="fill: #262626; stroke: #262626; stroke-width: 1.25"/>
      </g>
     </g>
     <g id="text_3">
      <!-- −1 -->
      <g style="fill: #262626" transform="translate(12.928281 211.260654) scale(0.11 -0.11)">
       <defs>
        <path id="ArialMT-31" d="M 2384 0 
L 1822 0 
L 1822 3584 
Q 1619 3391 1289 3197 
Q 959 3003 697 2906 
L 697 3450 
Q 1169 3672 1522 3987 
Q 1875 4303 2022 4600 
L 2384 4600 
L 2384 0 
z
" transform="scale(0.015625)"/>
       </defs>
       <use xlink:href="#ArialMT-2212"/>
       <use xlink:href="#ArialMT-31" x="58.398438"/>
      </g>
     </g>
    </g>
    <g id="ytick_3">
     <g id="line2d_4">
      <g>
       <use xlink:href="#m87ff9ee119" x="34.97" y="166.335382" style="fill: #262626; stroke: #262626; stroke-width: 1.25"/>
      </g>
     </g>
     <g id="text_4">
      <!-- 0 -->
      <g style="fill: #262626" transform="translate(19.352969 170.272179) scale(0.11 -0.11)">
       <defs>
        <path id="ArialMT-30" d="M 266 2259 
Q 266 3072 433 3567 
Q 600 4063 929 4331 
Q 1259 4600 1759 4600 
Q 2128 4600 2406 4451 
Q 2684 4303 2865 4023 
Q 3047 3744 3150 3342 
Q 3253 2941 3253 2259 
Q 3253 1453 3087 958 
Q 2922 463 2592 192 
Q 2263 -78 1759 -78 
Q 1097 -78 719 397 
Q 266 969 266 2259 
z
M 844 2259 
Q 844 1131 1108 757 
Q 1372 384 1759 384 
Q 2147 384 2411 759 
Q 2675 1134 2675 2259 
Q 2675 3391 2411 3762 
Q 2147 4134 1753 4134 
Q 1366 4134 1134 3806 
Q 844 3388 844 2259 
z
" transform="scale(0.015625)"/>
       </defs>
       <use xlink:href="#ArialMT-30"/>
      </g>
     </g>
    </g>
    <g id="ytick_4">
     <g id="line2d_5">
      <g>
       <use xlink:href="#m87ff9ee119" x="34.97" y="125.346907" style="fill: #262626; stroke: #262626; stroke-width: 1.25"/>
      </g>
     </g>
     <g id="text_5">
      <!-- 1 -->
      <g style="fill: #262626" transform="translate(19.352969 129.283704) scale(0.11 -0.11)">
       <use xlink:href="#ArialMT-31"/>
      </g>
     </g>
    </g>
    <g id="ytick_5">
     <g id="line2d_6">
      <g>
       <use xlink:href="#m87ff9ee119" x="34.97" y="84.358432" style="fill: #262626; stroke: #262626; stroke-width: 1.25"/>
      </g>
     </g>
     <g id="text_6">
      <!-- 2 -->
      <g style="fill: #262626" transform="translate(19.352969 88.295228) scale(0.11 -0.11)">
       <use xlink:href="#ArialMT-32"/>
      </g>
     </g>
    </g>
    <g id="ytick_6">
     <g id="line2d_7">
      <g>
       <use xlink:href="#m87ff9ee119" x="34.97" y="43.369956" style="fill: #262626; stroke: #262626; stroke-width: 1.25"/>
      </g>
     </g>
     <g id="text_7">
      <!-- 3 -->
      <g style="fill: #262626" transform="translate(19.352969 47.306753) scale(0.11 -0.11)">
       <defs>
        <path id="ArialMT-33" d="M 269 1209 
L 831 1284 
Q 928 806 1161 595 
Q 1394 384 1728 384 
Q 2125 384 2398 659 
Q 2672 934 2672 1341 
Q 2672 1728 2419 1979 
Q 2166 2231 1775 2231 
Q 1616 2231 1378 2169 
L 1441 2663 
Q 1497 2656 1531 2656 
Q 1891 2656 2178 2843 
Q 2466 3031 2466 3422 
Q 2466 3731 2256 3934 
Q 2047 4138 1716 4138 
Q 1388 4138 1169 3931 
Q 950 3725 888 3313 
L 325 3413 
Q 428 3978 793 4289 
Q 1159 4600 1703 4600 
Q 2078 4600 2393 4439 
Q 2709 4278 2876 4000 
Q 3044 3722 3044 3409 
Q 3044 3113 2884 2869 
Q 2725 2625 2413 2481 
Q 2819 2388 3044 2092 
Q 3269 1797 3269 1353 
Q 3269 753 2831 336 
Q 2394 -81 1725 -81 
Q 1122 -81 723 278 
Q 325 638 269 1209 
z
" transform="scale(0.015625)"/>
       </defs>
       <use xlink:href="#ArialMT-33"/>
      </g>
     </g>
    </g>
   </g>
   <g id="PolyCollection_1">
    <defs>
     <path id="m29990b1dce" d="M 551.140988 -42.277583 
L 550.869012 -42.277583 
L 550.694494 -44.244771 
L 550.337095 -46.21196 
L 549.628769 -48.179148 
L 548.253379 -50.146337 
L 545.642189 -52.113525 
L 540.86399 -54.080714 
L 532.592077 -56.047902 
L 519.263555 -58.01509 
L 499.501698 -59.982279 
L 472.721718 -61.949467 
L 439.649529 -63.916656 
L 402.405554 -65.883844 
L 363.971791 -67.851033 
L 327.230354 -69.818221 
L 294.091444 -71.78541 
L 265.229018 -73.752598 
L 240.538178 -75.719786 
L 219.893887 -77.686975 
L 203.57635 -79.654163 
L 192.048724 -81.621352 
L 185.345247 -83.58854 
L 182.621908 -85.555729 
L 182.212398 -87.522917 
L 182.10672 -89.490106 
L 180.541032 -91.457294 
L 176.445756 -93.424483 
L 169.655222 -95.391671 
L 160.889269 -97.358859 
L 151.56742 -99.326048 
L 143.514884 -101.293236 
L 138.578043 -103.260425 
L 138.177 -105.227613 
L 142.937571 -107.194802 
L 152.61179 -109.16199 
L 166.324416 -111.129179 
L 182.894187 -113.096367 
L 200.94191 -115.063555 
L 218.825145 -117.030744 
L 234.75322 -118.997932 
L 247.311995 -120.965121 
L 256.15148 -122.932309 
L 262.285023 -124.899498 
L 267.668007 -126.866686 
L 274.264013 -128.833875 
L 283.167563 -130.801063 
L 294.263578 -132.768252 
L 306.518625 -134.73544 
L 318.650433 -136.702628 
L 329.796977 -138.669817 
L 339.879965 -140.637005 
L 349.533325 -142.604194 
L 359.674645 -144.571382 
L 370.964286 -146.538571 
L 383.432769 -148.505759 
L 396.433512 -150.472948 
L 408.886467 -152.440136 
L 419.653928 -154.407324 
L 427.884095 -156.374513 
L 433.221413 -158.341701 
L 435.852486 -160.30889 
L 436.412583 -162.276078 
L 435.81575 -164.243267 
L 435.075227 -166.210455 
L 435.145758 -168.177644 
L 436.779815 -170.144832 
L 440.390626 -172.112021 
L 445.956268 -174.079209 
L 453.027193 -176.046397 
L 460.866513 -178.013586 
L 468.676996 -179.980774 
L 475.818724 -181.947963 
L 481.936144 -183.915151 
L 486.969031 -185.88234 
L 491.072061 -187.849528 
L 494.491862 -189.816717 
L 497.452935 -191.783905 
L 500.090432 -193.751093 
L 502.443355 -195.718282 
L 504.497876 -197.68547 
L 506.255575 -199.652659 
L 507.792391 -201.619847 
L 509.267308 -203.587036 
L 510.844754 -205.554224 
L 512.52213 -207.521413 
L 513.898559 -209.488601 
L 513.972123 -211.45579 
L 511.114392 -213.422978 
L 503.430026 -215.390166 
L 489.658835 -217.357355 
L 470.451378 -219.324543 
L 449.293498 -221.291732 
L 432.071042 -223.25892 
L 424.874221 -225.226109 
L 431.01651 -227.193297 
L 449.20775 -229.160486 
L 474.227382 -231.127674 
L 499.617677 -233.094862 
L 520.516188 -235.062051 
L 534.979686 -237.029239 
L 567.030314 -237.029239 
L 567.030314 -237.029239 
L 581.493812 -235.062051 
L 602.392323 -233.094862 
L 627.782618 -231.127674 
L 652.80225 -229.160486 
L 670.99349 -227.193297 
L 677.135779 -225.226109 
L 669.938958 -223.25892 
L 652.716502 -221.291732 
L 631.558622 -219.324543 
L 612.351165 -217.357355 
L 598.579974 -215.390166 
L 590.895608 -213.422978 
L 588.037877 -211.45579 
L 588.111441 -209.488601 
L 589.48787 -207.521413 
L 591.165246 -205.554224 
L 592.742692 -203.587036 
L 594.217609 -201.619847 
L 595.754425 -199.652659 
L 597.512124 -197.68547 
L 599.566645 -195.718282 
L 601.919568 -193.751093 
L 604.557065 -191.783905 
L 607.518138 -189.816717 
L 610.937939 -187.849528 
L 615.040969 -185.88234 
L 620.073856 -183.915151 
L 626.191276 -181.947963 
L 633.333004 -179.980774 
L 641.143487 -178.013586 
L 648.982807 -176.046397 
L 656.053732 -174.079209 
L 661.619374 -172.112021 
L 665.230185 -170.144832 
L 666.864242 -168.177644 
L 666.934773 -166.210455 
L 666.19425 -164.243267 
L 665.597417 -162.276078 
L 666.157514 -160.30889 
L 668.788587 -158.341701 
L 674.125905 -156.374513 
L 682.356072 -154.407324 
L 693.123533 -152.440136 
L 705.576488 -150.472948 
L 718.577231 -148.505759 
L 731.045714 -146.538571 
L 742.335355 -144.571382 
L 752.476675 -142.604194 
L 762.130035 -140.637005 
L 772.213023 -138.669817 
L 783.359567 -136.702628 
L 795.491375 -134.73544 
L 807.746422 -132.768252 
L 818.842437 -130.801063 
L 827.745987 -128.833875 
L 834.341993 -126.866686 
L 839.724977 -124.899498 
L 845.85852 -122.932309 
L 854.698005 -120.965121 
L 867.25678 -118.997932 
L 883.184855 -117.030744 
L 901.06809 -115.063555 
L 919.115813 -113.096367 
L 935.685584 -111.129179 
L 949.39821 -109.16199 
L 959.072429 -107.194802 
L 963.833 -105.227613 
L 963.431957 -103.260425 
L 958.495116 -101.293236 
L 950.44258 -99.326048 
L 941.120731 -97.358859 
L 932.354778 -95.391671 
L 925.564244 -93.424483 
L 921.468968 -91.457294 
L 919.90328 -89.490106 
L 919.797602 -87.522917 
L 919.388092 -85.555729 
L 916.664753 -83.58854 
L 909.961276 -81.621352 
L 898.43365 -79.654163 
L 882.116113 -77.686975 
L 861.471822 -75.719786 
L 836.780982 -73.752598 
L 807.918556 -71.78541 
L 774.779646 -69.818221 
L 738.038209 -67.851033 
L 699.604446 -65.883844 
L 662.360471 -63.916656 
L 629.288282 -61.949467 
L 602.508302 -59.982279 
L 582.746445 -58.01509 
L 569.417923 -56.047902 
L 561.14601 -54.080714 
L 556.367811 -52.113525 
L 553.756621 -50.146337 
L 552.381231 -48.179148 
L 551.672905 -46.21196 
L 551.315506 -44.244771 
L 551.140988 -42.277583 
z
" style="stroke: #4c4c4c; stroke-width: 3"/>
    </defs>
    <g clip-path="url(#pd52044378f)">
     <use xlink:href="#m29990b1dce" x="0" y="288" style="fill: #cb3335; stroke: #4c4c4c; stroke-width: 3"/>
    </g>
   </g>
   <g id="line2d_8">
    <path d="M 551.005 234.482844 
L 551.005 68.533242 
" clip-path="url(#pd52044378f)" style="fill: none; stroke: #4c4c4c; stroke-width: 4.5; stroke-linecap: round"/>
   </g>
   <g id="line2d_9">
    <path d="M 551.005 197.328612 
L 551.005 145.780272 
" clip-path="url(#pd52044378f)" style="fill: none; stroke: #4c4c4c; stroke-width: 13.5; stroke-linecap: round"/>
   </g>
   <g id="line2d_10">
    <path d="M 551.005 175.981117 
" clip-path="url(#pd52044378f)" style="fill: none; stroke: #4c4c4c; stroke-width: 1.5; stroke-linecap: round"/>
    <defs>
     <path id="m8b8f59b35e" d="M 5.625 0 
L -5.625 -0 
" style="stroke: #ffffff; stroke-width: 2.7"/>
    </defs>
    <g clip-path="url(#pd52044378f)">
     <use xlink:href="#m8b8f59b35e" x="551.005" y="175.981117" style="fill: #ffffff; stroke: #ffffff; stroke-width: 2.7"/>
    </g>
   </g>
   <g id="patch_3">
    <path d="M 34.97 255.46 
L 34.97 41.233178 
" style="fill: none; stroke: #262626; stroke-width: 1.25; stroke-linejoin: miter; stroke-linecap: square"/>
   </g>
   <g id="patch_4">
    <path d="M 1067.04 255.46 
L 1067.04 41.233178 
" style="fill: none; stroke: #262626; stroke-width: 1.25; stroke-linejoin: miter; stroke-linecap: square"/>
   </g>
   <g id="patch_5">
    <path d="M 34.97 255.46 
L 1067.04 255.46 
" style="fill: none; stroke: #262626; stroke-width: 1.25; stroke-linejoin: miter; stroke-linecap: square"/>
   </g>
   <g id="patch_6">
    <path d="M 34.97 41.233178 
L 1067.04 41.233178 
" style="fill: none; stroke: #262626; stroke-width: 1.25; stroke-linejoin: miter; stroke-linecap: square"/>
   </g>
  </g>
  <g id="text_8">
   <!-- Violin Plot of all Continuous Variables -->
   <g style="fill: #262626" transform="translate(416.035547 16.496719) scale(0.15 -0.15)">
    <defs>
     <path id="ArialMT-69" d="M 425 3934 
L 425 4581 
L 988 4581 
L 988 3934 
L 425 3934 
z
M 425 0 
L 425 3319 
L 988 3319 
L 988 0 
L 425 0 
z
" transform="scale(0.015625)"/>
     <path id="ArialMT-6e" d="M 422 0 
L 422 3319 
L 928 3319 
L 928 2847 
Q 1294 3394 1984 3394 
Q 2284 3394 2536 3286 
Q 2788 3178 2913 3003 
Q 3038 2828 3088 2588 
Q 3119 2431 3119 2041 
L 3119 0 
L 2556 0 
L 2556 2019 
Q 2556 2363 2490 2533 
Q 2425 2703 2258 2804 
Q 2091 2906 1866 2906 
Q 1506 2906 1245 2678 
Q 984 2450 984 1813 
L 984 0 
L 422 0 
z
" transform="scale(0.015625)"/>
     <path id="ArialMT-20" transform="scale(0.015625)"/>
     <path id="ArialMT-50" d="M 494 0 
L 494 4581 
L 2222 4581 
Q 2678 4581 2919 4538 
Q 3256 4481 3484 4323 
Q 3713 4166 3852 3881 
Q 3991 3597 3991 3256 
Q 3991 2672 3619 2267 
Q 3247 1863 2275 1863 
L 1100 1863 
L 1100 0 
L 494 0 
z
M 1100 2403 
L 2284 2403 
Q 2872 2403 3119 2622 
Q 3366 2841 3366 3238 
Q 3366 3525 3220 3729 
Q 3075 3934 2838 4000 
Q 2684 4041 2272 4041 
L 1100 4041 
L 1100 2403 
z
" transform="scale(0.015625)"/>
     <path id="ArialMT-74" d="M 1650 503 
L 1731 6 
Q 1494 -44 1306 -44 
Q 1000 -44 831 53 
Q 663 150 594 308 
Q 525 466 525 972 
L 525 2881 
L 113 2881 
L 113 3319 
L 525 3319 
L 525 4141 
L 1084 4478 
L 1084 3319 
L 1650 3319 
L 1650 2881 
L 1084 2881 
L 1084 941 
Q 1084 700 1114 631 
Q 1144 563 1211 522 
Q 1278 481 1403 481 
Q 1497 481 1650 503 
z
" transform="scale(0.015625)"/>
     <path id="ArialMT-66" d="M 556 0 
L 556 2881 
L 59 2881 
L 59 3319 
L 556 3319 
L 556 3672 
Q 556 4006 616 4169 
Q 697 4388 901 4523 
Q 1106 4659 1475 4659 
Q 1713 4659 2000 4603 
L 1916 4113 
Q 1741 4144 1584 4144 
Q 1328 4144 1222 4034 
Q 1116 3925 1116 3625 
L 1116 3319 
L 1763 3319 
L 1763 2881 
L 1116 2881 
L 1116 0 
L 556 0 
z
" transform="scale(0.015625)"/>
     <path id="ArialMT-43" d="M 3763 1606 
L 4369 1453 
Q 4178 706 3683 314 
Q 3188 -78 2472 -78 
Q 1731 -78 1267 223 
Q 803 525 561 1097 
Q 319 1669 319 2325 
Q 319 3041 592 3573 
Q 866 4106 1370 4382 
Q 1875 4659 2481 4659 
Q 3169 4659 3637 4309 
Q 4106 3959 4291 3325 
L 3694 3184 
Q 3534 3684 3231 3912 
Q 2928 4141 2469 4141 
Q 1941 4141 1586 3887 
Q 1231 3634 1087 3207 
Q 944 2781 944 2328 
Q 944 1744 1114 1308 
Q 1284 872 1643 656 
Q 2003 441 2422 441 
Q 2931 441 3284 734 
Q 3638 1028 3763 1606 
z
" transform="scale(0.015625)"/>
     <path id="ArialMT-72" d="M 416 0 
L 416 3319 
L 922 3319 
L 922 2816 
Q 1116 3169 1280 3281 
Q 1444 3394 1641 3394 
Q 1925 3394 2219 3213 
L 2025 2691 
Q 1819 2813 1613 2813 
Q 1428 2813 1281 2702 
Q 1134 2591 1072 2394 
Q 978 2094 978 1738 
L 978 0 
L 416 0 
z
" transform="scale(0.015625)"/>
     <path id="ArialMT-62" d="M 941 0 
L 419 0 
L 419 4581 
L 981 4581 
L 981 2947 
Q 1338 3394 1891 3394 
Q 2197 3394 2470 3270 
Q 2744 3147 2920 2923 
Q 3097 2700 3197 2384 
Q 3297 2069 3297 1709 
Q 3297 856 2875 390 
Q 2453 -75 1863 -75 
Q 1275 -75 941 416 
L 941 0 
z
M 934 1684 
Q 934 1088 1097 822 
Q 1363 388 1816 388 
Q 2184 388 2453 708 
Q 2722 1028 2722 1663 
Q 2722 2313 2464 2622 
Q 2206 2931 1841 2931 
Q 1472 2931 1203 2611 
Q 934 2291 934 1684 
z
" transform="scale(0.015625)"/>
    </defs>
    <use xlink:href="#ArialMT-56"/>
    <use xlink:href="#ArialMT-69" x="64.949219"/>
    <use xlink:href="#ArialMT-6f" x="87.166016"/>
    <use xlink:href="#ArialMT-6c" x="142.78125"/>
    <use xlink:href="#ArialMT-69" x="164.998047"/>
    <use xlink:href="#ArialMT-6e" x="187.214844"/>
    <use xlink:href="#ArialMT-20" x="242.830078"/>
    <use xlink:href="#ArialMT-50" x="270.613281"/>
    <use xlink:href="#ArialMT-6c" x="337.3125"/>
    <use xlink:href="#ArialMT-6f" x="359.529297"/>
    <use xlink:href="#ArialMT-74" x="415.144531"/>
    <use xlink:href="#ArialMT-20" x="442.927734"/>
    <use xlink:href="#ArialMT-6f" x="470.710938"/>
    <use xlink:href="#ArialMT-66" x="526.326172"/>
    <use xlink:href="#ArialMT-20" x="554.109375"/>
    <use xlink:href="#ArialMT-61" x="581.892578"/>
    <use xlink:href="#ArialMT-6c" x="637.507812"/>
    <use xlink:href="#ArialMT-6c" x="659.724609"/>
    <use xlink:href="#ArialMT-20" x="681.941406"/>
    <use xlink:href="#ArialMT-43" x="709.724609"/>
    <use xlink:href="#ArialMT-6f" x="781.941406"/>
    <use xlink:href="#ArialMT-6e" x="837.556641"/>
    <use xlink:href="#ArialMT-74" x="893.171875"/>
    <use xlink:href="#ArialMT-69" x="920.955078"/>
    <use xlink:href="#ArialMT-6e" x="943.171875"/>
    <use xlink:href="#ArialMT-75" x="998.787109"/>
    <use xlink:href="#ArialMT-6f" x="1054.402344"/>
    <use xlink:href="#ArialMT-75" x="1110.017578"/>
    <use xlink:href="#ArialMT-73" x="1165.632812"/>
    <use xlink:href="#ArialMT-20" x="1215.632812"/>
    <use xlink:href="#ArialMT-56" x="1243.416016"/>
    <use xlink:href="#ArialMT-61" x="1302.740234"/>
    <use xlink:href="#ArialMT-72" x="1358.355469"/>
    <use xlink:href="#ArialMT-69" x="1391.65625"/>
    <use xlink:href="#ArialMT-61" x="1413.873047"/>
    <use xlink:href="#ArialMT-62" x="1469.488281"/>
    <use xlink:href="#ArialMT-6c" x="1525.103516"/>
    <use xlink:href="#ArialMT-65" x="1547.320312"/>
    <use xlink:href="#ArialMT-73" x="1602.935547"/>
   </g>
  </g>
 </g>
 <defs>
  <clipPath id="pd52044378f">
   <rect x="34.97" y="41.233178" width="1032.07" height="214.226822"/>
  </clipPath>
 </defs>
</svg>
