<?xml version="1.0" encoding="utf-8" standalone="no"?>
<!DOCTYPE svg PUBLIC "-//W3C//DTD SVG 1.1//EN"
  "http://www.w3.org/Graphics/SVG/1.1/DTD/svg11.dtd">
<svg xmlns:xlink="http://www.w3.org/1999/xlink" width="1080pt" height="288pt" viewBox="0 0 1080 288" xmlns="http://www.w3.org/2000/svg" version="1.1">
 <metadata>
  <rdf:RDF xmlns:dc="http://purl.org/dc/elements/1.1/" xmlns:cc="http://creativecommons.org/ns#" xmlns:rdf="http://www.w3.org/1999/02/22-rdf-syntax-ns#">
   <cc:Work>
    <dc:type rdf:resource="http://purl.org/dc/dcmitype/StillImage"/>
    <dc:date>2026-04-11T14:39:03.823836</dc:date>
    <dc:format>image/svg+xml</dc:format>
    <dc:creator>
     <cc:Agent>
      <dc:title>Matplotlib v3.9.2, https://matplotlib.org/</dc:title>
     </cc:Agent>
    </dc:creator>
   </cc:Work>
  </rdf:RDF>
 </metadata>
 <defs>
  <style type="text/css">*{stroke-linejoin: round; stroke-linecap: butt}</style>
 </defs>
 <g id="figure_1">
  <g id="patch_1">
   <path d="M 0 288 
L 1080 288 
L 1080 0 
L 0 0 
z
" style="fill: #f0f0f0"/>
  </g>
  <g id="axes_1">
   <g id="patch_2">
    <path d="M 40.82 255.46 
L 1067.04 255.46 
L 1067.04 39.6 
L 40.82 39.6 
z
" style="fill: #ffffff"/>
   </g>
   <g id="matplotlib.axis_1">
    <g id="xtick_1">
     <g id="line2d_1">
      <defs>
       <path id="m83a26bbd44" d="M 0 0 
L 0 6 
" style="stroke: #262626; stroke-width: 1.25"/>
      </defs>
      <g>
       <use xlink:href="#m83a26bbd44" x="104.95875" y="255.46" style="fill: #262626; stroke: #262626; stroke-width: 1.25"/>
      </g>
     </g>
     <g id="text_1">
      <!-- MedInc -->
      <g style="fill: #262626" transform="translate(86.923906 272.833594) scale(0.11 -0.11)">
       <defs>
        <path id="ArialMT-4d" d="M 475 0 
L 475 4581 
L 1388 4581 
L 2472 1338 
Q 2622 884 2691 659 
Q 2769 909 2934 1394 
L 4031 4581 
L 4847 4581 
L 4847 0 
L 4263 0 
L 4263 3834 
L 2931 0 
L 2384 0 
L 1059 3900 
L 1059 0 
L 475 0 
z
" transform="scale(0.015625)"/>
        <path id="ArialMT-65" d="M 2694 1069 
L 3275 997 
Q 3138 488 2766 206 
Q 2394 -75 1816 -75 
Q 1088 -75 661 373 
Q 234 822 234 1631 
Q 234 2469 665 2931 
Q 1097 3394 1784 3394 
Q 2450 3394 2872 2941 
Q 3294 2488 3294 1666 
Q 3294 1616 3291 1516 
L 816 1516 
Q 847 969 1125 678 
Q 1403 388 1819 388 
Q 2128 388 2347 550 
Q 2566 713 2694 1069 
z
M 847 1978 
L 2700 1978 
Q 2663 2397 2488 2606 
Q 2219 2931 1791 2931 
Q 1403 2931 1139 2672 
Q 875 2413 847 1978 
z
" transform="scale(0.015625)"/>
        <path id="ArialMT-64" d="M 2575 0 
L 2575 419 
Q 2259 -75 1647 -75 
Q 1250 -75 917 144 
Q 584 363 401 755 
Q 219 1147 219 1656 
Q 219 2153 384 2558 
Q 550 2963 881 3178 
Q 1213 3394 1622 3394 
Q 1922 3394 2156 3267 
Q 2391 3141 2538 2938 
L 2538 4581 
L 3097 4581 
L 3097 0 
L 2575 0 
z
M 797 1656 
Q 797 1019 1065 703 
Q 1334 388 1700 388 
Q 2069 388 2326 689 
Q 2584 991 2584 1609 
Q 2584 2291 2321 2609 
Q 2059 2928 1675 2928 
Q 1300 2928 1048 2622 
Q 797 2316 797 1656 
z
" transform="scale(0.015625)"/>
        <path id="ArialMT-49" d="M 597 0 
L 597 4581 
L 1203 4581 
L 1203 0 
L 597 0 
z
" transform="scale(0.015625)"/>
        <path id="ArialMT-6e" d="M 422 0 
L 422 3319 
L 928 3319 
L 928 2847 
Q 1294 3394 1984 3394 
Q 2284 3394 2536 3286 
Q 2788 3178 2913 3003 
Q 3038 2828 3088 2588 
Q 3119 2431 3119 2041 
L 3119 0 
L 2556 0 
L 2556 2019 
Q 2556 2363 2490 2533 
Q 2425 2703 2258 2804 
Q 2091 2906 1866 2906 
Q 1506 2906 1245 2678 
Q 984 2450 984 1813 
L 984 0 
L 422 0 
z
" transform="scale(0.015625)"/>
        <path id="ArialMT-63" d="M 2588 1216 
L 3141 1144 
Q 3050 572 2676 248 
Q 2303 -75 1759 -75 
Q 1078 -75 664 370 
Q 250 816 250 1647 
Q 250 2184 428 2587 
Q 606 2991 970 3192 
Q 1334 3394 1763 3394 
Q 2303 3394 2647 3120 
Q 2991 2847 3088 2344 
L 2541 2259 
Q 2463 2594 2264 2762 
Q 2066 2931 1784 2931 
Q 1359 2931 1093 2626 
Q 828 2322 828 1663 
Q 828 994 1084 691 
Q 1341 388 1753 388 
Q 2084 388 2306 591 
Q 2528 794 2588 1216 
z
" transform="scale(0.015625)"/>
       </defs>
       <use xlink:href="#ArialMT-4d"/>
       <use xlink:href="#ArialMT-65" x="83.300781"/>
       <use xlink:href="#ArialMT-64" x="138.916016"/>
       <use xlink:href="#ArialMT-49" x="194.53125"/>
       <use xlink:href="#ArialMT-6e" x="222.314453"/>
       <use xlink:href="#ArialMT-63" x="277.929688"/>
      </g>
     </g>
    </g>
    <g id="xtick_2">
     <g id="line2d_2">
      <g>
       <use xlink:href="#m83a26bbd44" x="233.23625" y="255.46" style="fill: #262626; stroke: #262626; stroke-width: 1.25"/>
      </g>
     </g>
     <g id="text_2">
      <!-- HouseAge -->
      <g style="fill: #262626" transform="translate(207.552969 272.833594) scale(0.11 -0.11)">
       <defs>
        <path id="ArialMT-48" d="M 513 0 
L 513 4581 
L 1119 4581 
L 1119 2700 
L 3500 2700 
L 3500 4581 
L 4106 4581 
L 4106 0 
L 3500 0 
L 3500 2159 
L 1119 2159 
L 1119 0 
L 513 0 
z
" transform="scale(0.015625)"/>
        <path id="ArialMT-6f" d="M 213 1659 
Q 213 2581 725 3025 
Q 1153 3394 1769 3394 
Q 2453 3394 2887 2945 
Q 3322 2497 3322 1706 
Q 3322 1066 3130 698 
Q 2938 331 2570 128 
Q 2203 -75 1769 -75 
Q 1072 -75 642 372 
Q 213 819 213 1659 
z
M 791 1659 
Q 791 1022 1069 705 
Q 1347 388 1769 388 
Q 2188 388 2466 706 
Q 2744 1025 2744 1678 
Q 2744 2294 2464 2611 
Q 2184 2928 1769 2928 
Q 1347 2928 1069 2612 
Q 791 2297 791 1659 
z
" transform="scale(0.015625)"/>
        <path id="ArialMT-75" d="M 2597 0 
L 2597 488 
Q 2209 -75 1544 -75 
Q 1250 -75 995 37 
Q 741 150 617 320 
Q 494 491 444 738 
Q 409 903 409 1263 
L 409 3319 
L 972 3319 
L 972 1478 
Q 972 1038 1006 884 
Q 1059 663 1231 536 
Q 1403 409 1656 409 
Q 1909 409 2131 539 
Q 2353 669 2445 892 
Q 2538 1116 2538 1541 
L 2538 3319 
L 3100 3319 
L 3100 0 
L 2597 0 
z
" transform="scale(0.015625)"/>
        <path id="ArialMT-73" d="M 197 991 
L 753 1078 
Q 800 744 1014 566 
Q 1228 388 1613 388 
Q 2000 388 2187 545 
Q 2375 703 2375 916 
Q 2375 1106 2209 1216 
Q 2094 1291 1634 1406 
Q 1016 1563 777 1677 
Q 538 1791 414 1992 
Q 291 2194 291 2438 
Q 291 2659 392 2848 
Q 494 3038 669 3163 
Q 800 3259 1026 3326 
Q 1253 3394 1513 3394 
Q 1903 3394 2198 3281 
Q 2494 3169 2634 2976 
Q 2775 2784 2828 2463 
L 2278 2388 
Q 2241 2644 2061 2787 
Q 1881 2931 1553 2931 
Q 1166 2931 1000 2803 
Q 834 2675 834 2503 
Q 834 2394 903 2306 
Q 972 2216 1119 2156 
Q 1203 2125 1616 2013 
Q 2213 1853 2448 1751 
Q 2684 1650 2818 1456 
Q 2953 1263 2953 975 
Q 2953 694 2789 445 
Q 2625 197 2315 61 
Q 2006 -75 1616 -75 
Q 969 -75 630 194 
Q 291 463 197 991 
z
" transform="scale(0.015625)"/>
        <path id="ArialMT-41" d="M -9 0 
L 1750 4581 
L 2403 4581 
L 4278 0 
L 3588 0 
L 3053 1388 
L 1138 1388 
L 634 0 
L -9 0 
z
M 1313 1881 
L 2866 1881 
L 2388 3150 
Q 2169 3728 2063 4100 
Q 1975 3659 1816 3225 
L 1313 1881 
z
" transform="scale(0.015625)"/>
        <path id="ArialMT-67" d="M 319 -275 
L 866 -356 
Q 900 -609 1056 -725 
Q 1266 -881 1628 -881 
Q 2019 -881 2231 -725 
Q 2444 -569 2519 -288 
Q 2563 -116 2559 434 
Q 2191 0 1641 0 
Q 956 0 581 494 
Q 206 988 206 1678 
Q 206 2153 378 2554 
Q 550 2956 876 3175 
Q 1203 3394 1644 3394 
Q 2231 3394 2613 2919 
L 2613 3319 
L 3131 3319 
L 3131 450 
Q 3131 -325 2973 -648 
Q 2816 -972 2473 -1159 
Q 2131 -1347 1631 -1347 
Q 1038 -1347 672 -1080 
Q 306 -813 319 -275 
z
M 784 1719 
Q 784 1066 1043 766 
Q 1303 466 1694 466 
Q 2081 466 2343 764 
Q 2606 1063 2606 1700 
Q 2606 2309 2336 2618 
Q 2066 2928 1684 2928 
Q 1309 2928 1046 2623 
Q 784 2319 784 1719 
z
" transform="scale(0.015625)"/>
       </defs>
       <use xlink:href="#ArialMT-48"/>
       <use xlink:href="#ArialMT-6f" x="72.216797"/>
       <use xlink:href="#ArialMT-75" x="127.832031"/>
       <use xlink:href="#ArialMT-73" x="183.447266"/>
       <use xlink:href="#ArialMT-65" x="233.447266"/>
       <use xlink:href="#ArialMT-41" x="289.0625"/>
       <use xlink:href="#ArialMT-67" x="355.761719"/>
       <use xlink:href="#ArialMT-65" x="411.376953"/>
      </g>
     </g>
    </g>
    <g id="xtick_3">
     <g id="line2d_3">
      <g>
       <use xlink:href="#m83a26bbd44" x="361.51375" y="255.46" style="fill: #262626; stroke: #262626; stroke-width: 1.25"/>
      </g>
     </g>
     <g id="text_3">
      <!-- AveRooms -->
      <g style="fill: #262626" transform="translate(334.712422 272.833594) scale(0.11 -0.11)">
       <defs>
        <path id="ArialMT-76" d="M 1344 0 
L 81 3319 
L 675 3319 
L 1388 1331 
Q 1503 1009 1600 663 
Q 1675 925 1809 1294 
L 2547 3319 
L 3125 3319 
L 1869 0 
L 1344 0 
z
" transform="scale(0.015625)"/>
        <path id="ArialMT-52" d="M 503 0 
L 503 4581 
L 2534 4581 
Q 3147 4581 3465 4457 
Q 3784 4334 3975 4021 
Q 4166 3709 4166 3331 
Q 4166 2844 3850 2509 
Q 3534 2175 2875 2084 
Q 3116 1969 3241 1856 
Q 3506 1613 3744 1247 
L 4541 0 
L 3778 0 
L 3172 953 
Q 2906 1366 2734 1584 
Q 2563 1803 2427 1890 
Q 2291 1978 2150 2013 
Q 2047 2034 1813 2034 
L 1109 2034 
L 1109 0 
L 503 0 
z
M 1109 2559 
L 2413 2559 
Q 2828 2559 3062 2645 
Q 3297 2731 3419 2920 
Q 3541 3109 3541 3331 
Q 3541 3656 3305 3865 
Q 3069 4075 2559 4075 
L 1109 4075 
L 1109 2559 
z
" transform="scale(0.015625)"/>
        <path id="ArialMT-6d" d="M 422 0 
L 422 3319 
L 925 3319 
L 925 2853 
Q 1081 3097 1340 3245 
Q 1600 3394 1931 3394 
Q 2300 3394 2536 3241 
Q 2772 3088 2869 2813 
Q 3263 3394 3894 3394 
Q 4388 3394 4653 3120 
Q 4919 2847 4919 2278 
L 4919 0 
L 4359 0 
L 4359 2091 
Q 4359 2428 4304 2576 
Q 4250 2725 4106 2815 
Q 3963 2906 3769 2906 
Q 3419 2906 3187 2673 
Q 2956 2441 2956 1928 
L 2956 0 
L 2394 0 
L 2394 2156 
Q 2394 2531 2256 2718 
Q 2119 2906 1806 2906 
Q 1569 2906 1367 2781 
Q 1166 2656 1075 2415 
Q 984 2175 984 1722 
L 984 0 
L 422 0 
z
" transform="scale(0.015625)"/>
       </defs>
       <use xlink:href="#ArialMT-41"/>
       <use xlink:href="#ArialMT-76" x="64.949219"/>
       <use xlink:href="#ArialMT-65" x="114.949219"/>
       <use xlink:href="#ArialMT-52" x="170.564453"/>
       <use xlink:href="#ArialMT-6f" x="242.78125"/>
       <use xlink:href="#ArialMT-6f" x="298.396484"/>
       <use xlink:href="#ArialMT-6d" x="354.011719"/>
       <use xlink:href="#ArialMT-73" x="437.3125"/>
      </g>
     </g>
    </g>
    <g id="xtick_4">
     <g id="line2d_4">
      <g>
       <use xlink:href="#m83a26bbd44" x="489.79125" y="255.46" style="fill: #262626; stroke: #262626; stroke-width: 1.25"/>
      </g>
     </g>
     <g id="text_4">
      <!-- AveBedrms -->
      <g style="fill: #262626" transform="translate(461.461953 272.833594) scale(0.11 -0.11)">
       <defs>
        <path id="ArialMT-42" d="M 469 0 
L 469 4581 
L 2188 4581 
Q 2713 4581 3030 4442 
Q 3347 4303 3526 4014 
Q 3706 3725 3706 3409 
Q 3706 3116 3547 2856 
Q 3388 2597 3066 2438 
Q 3481 2316 3704 2022 
Q 3928 1728 3928 1328 
Q 3928 1006 3792 729 
Q 3656 453 3456 303 
Q 3256 153 2954 76 
Q 2653 0 2216 0 
L 469 0 
z
M 1075 2656 
L 2066 2656 
Q 2469 2656 2644 2709 
Q 2875 2778 2992 2937 
Q 3109 3097 3109 3338 
Q 3109 3566 3000 3739 
Q 2891 3913 2687 3977 
Q 2484 4041 1991 4041 
L 1075 4041 
L 1075 2656 
z
M 1075 541 
L 2216 541 
Q 2509 541 2628 563 
Q 2838 600 2978 687 
Q 3119 775 3209 942 
Q 3300 1109 3300 1328 
Q 3300 1584 3169 1773 
Q 3038 1963 2805 2039 
Q 2572 2116 2134 2116 
L 1075 2116 
L 1075 541 
z
" transform="scale(0.015625)"/>
        <path id="ArialMT-72" d="M 416 0 
L 416 3319 
L 922 3319 
L 922 2816 
Q 1116 3169 1280 3281 
Q 1444 3394 1641 3394 
Q 1925 3394 2219 3213 
L 2025 2691 
Q 1819 2813 1613 2813 
Q 1428 2813 1281 2702 
Q 1134 2591 1072 2394 
Q 978 2094 978 1738 
L 978 0 
L 416 0 
z
" transform="scale(0.015625)"/>
       </defs>
       <use xlink:href="#ArialMT-41"/>
       <use xlink:href="#ArialMT-76" x="64.949219"/>
       <use xlink:href="#ArialMT-65" x="114.949219"/>
       <use xlink:href="#ArialMT-42" x="170.564453"/>
       <use xlink:href="#ArialMT-65" x="237.263672"/>
       <use xlink:href="#ArialMT-64" x="292.878906"/>
       <use xlink:href="#ArialMT-72" x="348.494141"/>
       <use xlink:href="#ArialMT-6d" x="381.794922"/>
       <use xlink:href="#ArialMT-73" x="465.095703"/>
      </g>
     </g>
    </g>
    <g id="xtick_5">
     <g id="line2d_5">
      <g>
       <use xlink:href="#m83a26bbd44" x="618.06875" y="255.46" style="fill: #262626; stroke: #262626; stroke-width: 1.25"/>
      </g>
     </g>
     <g id="text_5">
      <!-- Population -->
      <g style="fill: #262626" transform="translate(592.076953 272.833594) scale(0.11 -0.11)">
       <defs>
        <path id="ArialMT-50" d="M 494 0 
L 494 4581 
L 2222 4581 
Q 2678 4581 2919 4538 
Q 3256 4481 3484 4323 
Q 3713 4166 3852 3881 
Q 3991 3597 3991 3256 
Q 3991 2672 3619 2267 
Q 3247 1863 2275 1863 
L 1100 1863 
L 1100 0 
L 494 0 
z
M 1100 2403 
L 2284 2403 
Q 2872 2403 3119 2622 
Q 3366 2841 3366 3238 
Q 3366 3525 3220 3729 
Q 3075 3934 2838 4000 
Q 2684 4041 2272 4041 
L 1100 4041 
L 1100 2403 
z
" transform="scale(0.015625)"/>
        <path id="ArialMT-70" d="M 422 -1272 
L 422 3319 
L 934 3319 
L 934 2888 
Q 1116 3141 1344 3267 
Q 1572 3394 1897 3394 
Q 2322 3394 2647 3175 
Q 2972 2956 3137 2557 
Q 3303 2159 3303 1684 
Q 3303 1175 3120 767 
Q 2938 359 2589 142 
Q 2241 -75 1856 -75 
Q 1575 -75 1351 44 
Q 1128 163 984 344 
L 984 -1272 
L 422 -1272 
z
M 931 1641 
Q 931 1000 1190 694 
Q 1450 388 1819 388 
Q 2194 388 2461 705 
Q 2728 1022 2728 1688 
Q 2728 2322 2467 2637 
Q 2206 2953 1844 2953 
Q 1484 2953 1207 2617 
Q 931 2281 931 1641 
z
" transform="scale(0.015625)"/>
        <path id="ArialMT-6c" d="M 409 0 
L 409 4581 
L 972 4581 
L 972 0 
L 409 0 
z
" transform="scale(0.015625)"/>
        <path id="ArialMT-61" d="M 2588 409 
Q 2275 144 1986 34 
Q 1697 -75 1366 -75 
Q 819 -75 525 192 
Q 231 459 231 875 
Q 231 1119 342 1320 
Q 453 1522 633 1644 
Q 813 1766 1038 1828 
Q 1203 1872 1538 1913 
Q 2219 1994 2541 2106 
Q 2544 2222 2544 2253 
Q 2544 2597 2384 2738 
Q 2169 2928 1744 2928 
Q 1347 2928 1158 2789 
Q 969 2650 878 2297 
L 328 2372 
Q 403 2725 575 2942 
Q 747 3159 1072 3276 
Q 1397 3394 1825 3394 
Q 2250 3394 2515 3294 
Q 2781 3194 2906 3042 
Q 3031 2891 3081 2659 
Q 3109 2516 3109 2141 
L 3109 1391 
Q 3109 606 3145 398 
Q 3181 191 3288 0 
L 2700 0 
Q 2613 175 2588 409 
z
M 2541 1666 
Q 2234 1541 1622 1453 
Q 1275 1403 1131 1340 
Q 988 1278 909 1158 
Q 831 1038 831 891 
Q 831 666 1001 516 
Q 1172 366 1500 366 
Q 1825 366 2078 508 
Q 2331 650 2450 897 
Q 2541 1088 2541 1459 
L 2541 1666 
z
" transform="scale(0.015625)"/>
        <path id="ArialMT-74" d="M 1650 503 
L 1731 6 
Q 1494 -44 1306 -44 
Q 1000 -44 831 53 
Q 663 150 594 308 
Q 525 466 525 972 
L 525 2881 
L 113 2881 
L 113 3319 
L 525 3319 
L 525 4141 
L 1084 4478 
L 1084 3319 
L 1650 3319 
L 1650 2881 
L 1084 2881 
L 1084 941 
Q 1084 700 1114 631 
Q 1144 563 1211 522 
Q 1278 481 1403 481 
Q 1497 481 1650 503 
z
" transform="scale(0.015625)"/>
        <path id="ArialMT-69" d="M 425 3934 
L 425 4581 
L 988 4581 
L 988 3934 
L 425 3934 
z
M 425 0 
L 425 3319 
L 988 3319 
L 988 0 
L 425 0 
z
" transform="scale(0.015625)"/>
       </defs>
       <use xlink:href="#ArialMT-50"/>
       <use xlink:href="#ArialMT-6f" x="66.699219"/>
       <use xlink:href="#ArialMT-70" x="122.314453"/>
       <use xlink:href="#ArialMT-75" x="177.929688"/>
       <use xlink:href="#ArialMT-6c" x="233.544922"/>
       <use xlink:href="#ArialMT-61" x="255.761719"/>
       <use xlink:href="#ArialMT-74" x="311.376953"/>
       <use xlink:href="#ArialMT-69" x="339.160156"/>
       <use xlink:href="#ArialMT-6f" x="361.376953"/>
       <use xlink:href="#ArialMT-6e" x="416.992188"/>
      </g>
     </g>
    </g>
    <g id="xtick_6">
     <g id="line2d_6">
      <g>
       <use xlink:href="#m83a26bbd44" x="746.34625" y="255.46" style="fill: #262626; stroke: #262626; stroke-width: 1.25"/>
      </g>
     </g>
     <g id="text_6">
      <!-- AveOccup -->
      <g style="fill: #262626" transform="translate(721.070312 272.974531) scale(0.11 -0.11)">
       <defs>
        <path id="ArialMT-4f" d="M 309 2231 
Q 309 3372 921 4017 
Q 1534 4663 2503 4663 
Q 3138 4663 3647 4359 
Q 4156 4056 4423 3514 
Q 4691 2972 4691 2284 
Q 4691 1588 4409 1038 
Q 4128 488 3612 205 
Q 3097 -78 2500 -78 
Q 1853 -78 1343 234 
Q 834 547 571 1087 
Q 309 1628 309 2231 
z
M 934 2222 
Q 934 1394 1379 917 
Q 1825 441 2497 441 
Q 3181 441 3623 922 
Q 4066 1403 4066 2288 
Q 4066 2847 3877 3264 
Q 3688 3681 3323 3911 
Q 2959 4141 2506 4141 
Q 1863 4141 1398 3698 
Q 934 3256 934 2222 
z
" transform="scale(0.015625)"/>
       </defs>
       <use xlink:href="#ArialMT-41"/>
       <use xlink:href="#ArialMT-76" x="64.949219"/>
       <use xlink:href="#ArialMT-65" x="114.949219"/>
       <use xlink:href="#ArialMT-4f" x="170.564453"/>
       <use xlink:href="#ArialMT-63" x="248.347656"/>
       <use xlink:href="#ArialMT-63" x="298.347656"/>
       <use xlink:href="#ArialMT-75" x="348.347656"/>
       <use xlink:href="#ArialMT-70" x="403.962891"/>
      </g>
     </g>
    </g>
    <g id="xtick_7">
     <g id="line2d_7">
      <g>
       <use xlink:href="#m83a26bbd44" x="874.62375" y="255.46" style="fill: #262626; stroke: #262626; stroke-width: 1.25"/>
      </g>
     </g>
     <g id="text_7">
      <!-- Latitude -->
      <g style="fill: #262626" transform="translate(855.053203 272.833594) scale(0.11 -0.11)">
       <defs>
        <path id="ArialMT-4c" d="M 469 0 
L 469 4581 
L 1075 4581 
L 1075 541 
L 3331 541 
L 3331 0 
L 469 0 
z
" transform="scale(0.015625)"/>
       </defs>
       <use xlink:href="#ArialMT-4c"/>
       <use xlink:href="#ArialMT-61" x="55.615234"/>
       <use xlink:href="#ArialMT-74" x="111.230469"/>
       <use xlink:href="#ArialMT-69" x="139.013672"/>
       <use xlink:href="#ArialMT-74" x="161.230469"/>
       <use xlink:href="#ArialMT-75" x="189.013672"/>
       <use xlink:href="#ArialMT-64" x="244.628906"/>
       <use xlink:href="#ArialMT-65" x="300.244141"/>
      </g>
     </g>
    </g>
    <g id="xtick_8">
     <g id="line2d_8">
      <g>
       <use xlink:href="#m83a26bbd44" x="1002.90125" y="255.46" style="fill: #262626; stroke: #262626; stroke-width: 1.25"/>
      </g>
     </g>
     <g id="text_8">
      <!-- Longitude -->
      <g style="fill: #262626" transform="translate(978.741641 272.833594) scale(0.11 -0.11)">
       <use xlink:href="#ArialMT-4c"/>
       <use xlink:href="#ArialMT-6f" x="55.615234"/>
       <use xlink:href="#ArialMT-6e" x="111.230469"/>
       <use xlink:href="#ArialMT-67" x="166.845703"/>
       <use xlink:href="#ArialMT-69" x="222.460938"/>
       <use xlink:href="#ArialMT-74" x="244.677734"/>
       <use xlink:href="#ArialMT-75" x="272.460938"/>
       <use xlink:href="#ArialMT-64" x="328.076172"/>
       <use xlink:href="#ArialMT-65" x="383.691406"/>
      </g>
     </g>
    </g>
   </g>
   <g id="matplotlib.axis_2">
    <g id="ytick_1">
     <g id="line2d_9">
      <defs>
       <path id="md0bf92eb78" d="M 0 0 
L -6 0 
" style="stroke: #262626; stroke-width: 1.25"/>
      </defs>
      <g>
       <use xlink:href="#md0bf92eb78" x="40.82" y="241.381608" style="fill: #262626; stroke: #262626; stroke-width: 1.25"/>
      </g>
     </g>
     <g id="text_9">
      <!-- 0 -->
      <g style="fill: #262626" transform="translate(25.202969 245.318405) scale(0.11 -0.11)">
       <defs>
        <path id="ArialMT-30" d="M 266 2259 
Q 266 3072 433 3567 
Q 600 4063 929 4331 
Q 1259 4600 1759 4600 
Q 2128 4600 2406 4451 
Q 2684 4303 2865 4023 
Q 3047 3744 3150 3342 
Q 3253 2941 3253 2259 
Q 3253 1453 3087 958 
Q 2922 463 2592 192 
Q 2263 -78 1759 -78 
Q 1097 -78 719 397 
Q 266 969 266 2259 
z
M 844 2259 
Q 844 1131 1108 757 
Q 1372 384 1759 384 
Q 2147 384 2411 759 
Q 2675 1134 2675 2259 
Q 2675 3391 2411 3762 
Q 2147 4134 1753 4134 
Q 1366 4134 1134 3806 
Q 844 3388 844 2259 
z
" transform="scale(0.015625)"/>
       </defs>
       <use xlink:href="#ArialMT-30"/>
      </g>
     </g>
    </g>
    <g id="ytick_2">
     <g id="line2d_10">
      <g>
       <use xlink:href="#md0bf92eb78" x="40.82" y="209.303889" style="fill: #262626; stroke: #262626; stroke-width: 1.25"/>
      </g>
     </g>
     <g id="text_10">
      <!-- 20 -->
      <g style="fill: #262626" transform="translate(19.085938 213.240686) scale(0.11 -0.11)">
       <defs>
        <path id="ArialMT-32" d="M 3222 541 
L 3222 0 
L 194 0 
Q 188 203 259 391 
Q 375 700 629 1000 
Q 884 1300 1366 1694 
Q 2113 2306 2375 2664 
Q 2638 3022 2638 3341 
Q 2638 3675 2398 3904 
Q 2159 4134 1775 4134 
Q 1369 4134 1125 3890 
Q 881 3647 878 3216 
L 300 3275 
Q 359 3922 746 4261 
Q 1134 4600 1788 4600 
Q 2447 4600 2831 4234 
Q 3216 3869 3216 3328 
Q 3216 3053 3103 2787 
Q 2991 2522 2730 2228 
Q 2469 1934 1863 1422 
Q 1356 997 1212 845 
Q 1069 694 975 541 
L 3222 541 
z
" transform="scale(0.015625)"/>
       </defs>
       <use xlink:href="#ArialMT-32"/>
       <use xlink:href="#ArialMT-30" x="55.615234"/>
      </g>
     </g>
    </g>
    <g id="ytick_3">
     <g id="line2d_11">
      <g>
       <use xlink:href="#md0bf92eb78" x="40.82" y="177.22617" style="fill: #262626; stroke: #262626; stroke-width: 1.25"/>
      </g>
     </g>
     <g id="text_11">
      <!-- 40 -->
      <g style="fill: #262626" transform="translate(19.085938 181.162967) scale(0.11 -0.11)">
       <defs>
        <path id="ArialMT-34" d="M 2069 0 
L 2069 1097 
L 81 1097 
L 81 1613 
L 2172 4581 
L 2631 4581 
L 2631 1613 
L 3250 1613 
L 3250 1097 
L 2631 1097 
L 2631 0 
L 2069 0 
z
M 2069 1613 
L 2069 3678 
L 634 1613 
L 2069 1613 
z
" transform="scale(0.015625)"/>
       </defs>
       <use xlink:href="#ArialMT-34"/>
       <use xlink:href="#ArialMT-30" x="55.615234"/>
      </g>
     </g>
    </g>
    <g id="ytick_4">
     <g id="line2d_12">
      <g>
       <use xlink:href="#md0bf92eb78" x="40.82" y="145.14845" style="fill: #262626; stroke: #262626; stroke-width: 1.25"/>
      </g>
     </g>
     <g id="text_12">
      <!-- 60 -->
      <g style="fill: #262626" transform="translate(19.085938 149.085247) scale(0.11 -0.11)">
       <defs>
        <path id="ArialMT-36" d="M 3184 3459 
L 2625 3416 
Q 2550 3747 2413 3897 
Q 2184 4138 1850 4138 
Q 1581 4138 1378 3988 
Q 1113 3794 959 3422 
Q 806 3050 800 2363 
Q 1003 2672 1297 2822 
Q 1591 2972 1913 2972 
Q 2475 2972 2870 2558 
Q 3266 2144 3266 1488 
Q 3266 1056 3080 686 
Q 2894 316 2569 119 
Q 2244 -78 1831 -78 
Q 1128 -78 684 439 
Q 241 956 241 2144 
Q 241 3472 731 4075 
Q 1159 4600 1884 4600 
Q 2425 4600 2770 4297 
Q 3116 3994 3184 3459 
z
M 888 1484 
Q 888 1194 1011 928 
Q 1134 663 1356 523 
Q 1578 384 1822 384 
Q 2178 384 2434 671 
Q 2691 959 2691 1453 
Q 2691 1928 2437 2201 
Q 2184 2475 1800 2475 
Q 1419 2475 1153 2201 
Q 888 1928 888 1484 
z
" transform="scale(0.015625)"/>
       </defs>
       <use xlink:href="#ArialMT-36"/>
       <use xlink:href="#ArialMT-30" x="55.615234"/>
      </g>
     </g>
    </g>
    <g id="ytick_5">
     <g id="line2d_13">
      <g>
       <use xlink:href="#md0bf92eb78" x="40.82" y="113.070731" style="fill: #262626; stroke: #262626; stroke-width: 1.25"/>
      </g>
     </g>
     <g id="text_13">
      <!-- 80 -->
      <g style="fill: #262626" transform="translate(19.085938 117.007528) scale(0.11 -0.11)">
       <defs>
        <path id="ArialMT-38" d="M 1131 2484 
Q 781 2613 612 2850 
Q 444 3088 444 3419 
Q 444 3919 803 4259 
Q 1163 4600 1759 4600 
Q 2359 4600 2725 4251 
Q 3091 3903 3091 3403 
Q 3091 3084 2923 2848 
Q 2756 2613 2416 2484 
Q 2838 2347 3058 2040 
Q 3278 1734 3278 1309 
Q 3278 722 2862 322 
Q 2447 -78 1769 -78 
Q 1091 -78 675 323 
Q 259 725 259 1325 
Q 259 1772 486 2073 
Q 713 2375 1131 2484 
z
M 1019 3438 
Q 1019 3113 1228 2906 
Q 1438 2700 1772 2700 
Q 2097 2700 2305 2904 
Q 2513 3109 2513 3406 
Q 2513 3716 2298 3927 
Q 2084 4138 1766 4138 
Q 1444 4138 1231 3931 
Q 1019 3725 1019 3438 
z
M 838 1322 
Q 838 1081 952 856 
Q 1066 631 1291 507 
Q 1516 384 1775 384 
Q 2178 384 2440 643 
Q 2703 903 2703 1303 
Q 2703 1709 2433 1975 
Q 2163 2241 1756 2241 
Q 1359 2241 1098 1978 
Q 838 1716 838 1322 
z
" transform="scale(0.015625)"/>
       </defs>
       <use xlink:href="#ArialMT-38"/>
       <use xlink:href="#ArialMT-30" x="55.615234"/>
      </g>
     </g>
    </g>
    <g id="ytick_6">
     <g id="line2d_14">
      <g>
       <use xlink:href="#md0bf92eb78" x="40.82" y="80.993012" style="fill: #262626; stroke: #262626; stroke-width: 1.25"/>
      </g>
     </g>
     <g id="text_14">
      <!-- 100 -->
      <g style="fill: #262626" transform="translate(12.968906 84.929809) scale(0.11 -0.11)">
       <defs>
        <path id="ArialMT-31" d="M 2384 0 
L 1822 0 
L 1822 3584 
Q 1619 3391 1289 3197 
Q 959 3003 697 2906 
L 697 3450 
Q 1169 3672 1522 3987 
Q 1875 4303 2022 4600 
L 2384 4600 
L 2384 0 
z
" transform="scale(0.015625)"/>
       </defs>
       <use xlink:href="#ArialMT-31"/>
       <use xlink:href="#ArialMT-30" x="55.615234"/>
       <use xlink:href="#ArialMT-30" x="111.230469"/>
      </g>
     </g>
    </g>
    <g id="ytick_7">
     <g id="line2d_15">
      <g>
       <use xlink:href="#md0bf92eb78" x="40.82" y="48.915292" style="fill: #262626; stroke: #262626; stroke-width: 1.25"/>
      </g>
     </g>
     <g id="text_15">
      <!-- 120 -->
      <g style="fill: #262626" transform="translate(12.968906 52.852089) scale(0.11 -0.11)">
       <use xlink:href="#ArialMT-31"/>
       <use xlink:href="#ArialMT-32" x="55.615234"/>
       <use xlink:href="#ArialMT-30" x="111.230469"/>
      </g>
     </g>
    </g>
   </g>
   <g id="PolyCollection_1">
    <defs>
     <path id="m2eaf341760" d="M 105.009445 -43.33288 
L 104.908055 -43.33288 
L 104.78552 -43.465417 
L 104.494771 -43.597953 
L 103.925133 -43.73049 
L 102.935104 -43.863026 
L 101.35755 -43.995562 
L 99.041241 -44.128099 
L 95.870711 -44.260635 
L 91.762627 -44.393172 
L 86.762063 -44.525708 
L 81.209285 -44.658245 
L 75.640623 -44.790781 
L 70.418534 -44.923318 
L 65.711083 -45.055854 
L 61.769308 -45.188391 
L 58.815525 -45.320927 
L 56.846289 -45.453464 
L 55.674659 -45.586 
L 54.856559 -45.718537 
L 54.04659 -45.851073 
L 53.64775 -45.98361 
L 54.226529 -46.116146 
L 55.565354 -46.248683 
L 57.155992 -46.381219 
L 58.850265 -46.513756 
L 60.657685 -46.646292 
L 62.783283 -46.778829 
L 65.561461 -46.911365 
L 68.808413 -47.043902 
L 71.892913 -47.176438 
L 74.453181 -47.308975 
L 76.497724 -47.441511 
L 78.215199 -47.574048 
L 79.981042 -47.706584 
L 82.087043 -47.839121 
L 84.441374 -47.971657 
L 86.724261 -48.104194 
L 88.613767 -48.23673 
L 89.968546 -48.369267 
L 91.040104 -48.501803 
L 92.234163 -48.63434 
L 93.6237 -48.766876 
L 95.01703 -48.899413 
L 96.327767 -49.031949 
L 97.561613 -49.164486 
L 98.62368 -49.297022 
L 99.376855 -49.429559 
L 99.808626 -49.562095 
L 100.039718 -49.694632 
L 100.225853 -49.827168 
L 100.478148 -49.959705 
L 100.830455 -50.092241 
L 101.256597 -50.224778 
L 101.711442 -50.357314 
L 102.15952 -50.489851 
L 102.583086 -50.622387 
L 102.975643 -50.754924 
L 103.326451 -50.88746 
L 103.614684 -51.019997 
L 103.826119 -51.152533 
L 103.958483 -51.28507 
L 104.003876 -51.417606 
L 103.949059 -51.550143 
L 103.803402 -51.682679 
L 103.626842 -51.815215 
L 103.51563 -51.947752 
L 103.527042 -52.080288 
L 103.629667 -52.212825 
L 103.758979 -52.345361 
L 103.893973 -52.477898 
L 104.050186 -52.610434 
L 104.226901 -52.742971 
L 104.391053 -52.875507 
L 104.506946 -53.008044 
L 104.570442 -53.14058 
L 104.605154 -53.273117 
L 104.626387 -53.405653 
L 104.630863 -53.53819 
L 104.622743 -53.670726 
L 104.621474 -53.803263 
L 104.638104 -53.935799 
L 104.661869 -54.068336 
L 104.676133 -54.200872 
L 104.677937 -54.333409 
L 104.678756 -54.465945 
L 104.693535 -54.598482 
L 104.729023 -54.731018 
L 104.778066 -54.863555 
L 104.825986 -54.996091 
L 104.860413 -55.128628 
L 104.874627 -55.261164 
L 104.865839 -55.393701 
L 104.819973 -55.526237 
L 104.694578 -55.658774 
L 104.468514 -55.79131 
L 104.245543 -55.923847 
L 104.210965 -56.056383 
L 104.407593 -56.18892 
L 104.675214 -56.321456 
L 104.857165 -56.453993 
L 105.060335 -56.453993 
L 105.060335 -56.453993 
L 105.242286 -56.321456 
L 105.509907 -56.18892 
L 105.706535 -56.056383 
L 105.671957 -55.923847 
L 105.448986 -55.79131 
L 105.222922 -55.658774 
L 105.097527 -55.526237 
L 105.051661 -55.393701 
L 105.042873 -55.261164 
L 105.057087 -55.128628 
L 105.091514 -54.996091 
L 105.139434 -54.863555 
L 105.188477 -54.731018 
L 105.223965 -54.598482 
L 105.238744 -54.465945 
L 105.239563 -54.333409 
L 105.241367 -54.200872 
L 105.255631 -54.068336 
L 105.279396 -53.935799 
L 105.296026 -53.803263 
L 105.294757 -53.670726 
L 105.286637 -53.53819 
L 105.291113 -53.405653 
L 105.312346 -53.273117 
L 105.347058 -53.14058 
L 105.410554 -53.008044 
L 105.526447 -52.875507 
L 105.690599 -52.742971 
L 105.867314 -52.610434 
L 106.023527 -52.477898 
L 106.158521 -52.345361 
L 106.287833 -52.212825 
L 106.390458 -52.080288 
L 106.40187 -51.947752 
L 106.290658 -51.815215 
L 106.114098 -51.682679 
L 105.968441 -51.550143 
L 105.913624 -51.417606 
L 105.959017 -51.28507 
L 106.091381 -51.152533 
L 106.302816 -51.019997 
L 106.591049 -50.88746 
L 106.941857 -50.754924 
L 107.334414 -50.622387 
L 107.75798 -50.489851 
L 108.206058 -50.357314 
L 108.660903 -50.224778 
L 109.087045 -50.092241 
L 109.439352 -49.959705 
L 109.691647 -49.827168 
L 109.877782 -49.694632 
L 110.108874 -49.562095 
L 110.540645 -49.429559 
L 111.29382 -49.297022 
L 112.355887 -49.164486 
L 113.589733 -49.031949 
L 114.90047 -48.899413 
L 116.2938 -48.766876 
L 117.683337 -48.63434 
L 118.877396 -48.501803 
L 119.948954 -48.369267 
L 121.303733 -48.23673 
L 123.193239 -48.104194 
L 125.476126 -47.971657 
L 127.830457 -47.839121 
L 129.936458 -47.706584 
L 131.702301 -47.574048 
L 133.419776 -47.441511 
L 135.464319 -47.308975 
L 138.024587 -47.176438 
L 141.109087 -47.043902 
L 144.356039 -46.911365 
L 147.134217 -46.778829 
L 149.259815 -46.646292 
L 151.067235 -46.513756 
L 152.761508 -46.381219 
L 154.352146 -46.248683 
L 155.690971 -46.116146 
L 156.26975 -45.98361 
L 155.87091 -45.851073 
L 155.060941 -45.718537 
L 154.242841 -45.586 
L 153.071211 -45.453464 
L 151.101975 -45.320927 
L 148.148192 -45.188391 
L 144.206417 -45.055854 
L 139.498966 -44.923318 
L 134.276877 -44.790781 
L 128.708215 -44.658245 
L 123.155437 -44.525708 
L 118.154873 -44.393172 
L 114.046789 -44.260635 
L 110.876259 -44.128099 
L 108.55995 -43.995562 
L 106.982396 -43.863026 
L 105.992367 -43.73049 
L 105.422729 -43.597953 
L 105.13198 -43.465417 
L 105.009445 -43.33288 
z
" style="stroke: #3e3e3e; stroke-width: 3"/>
    </defs>
    <g clip-path="url(#pe1d65e15ed)">
     <use xlink:href="#m2eaf341760" x="0" y="288" style="fill: #cb3335; stroke: #3e3e3e; stroke-width: 3"/>
    </g>
   </g>
   <g id="PolyCollection_2">
    <defs>
     <path id="mf690d0dce1" d="M 233.291638 -42.656247 
L 233.180862 -42.656247 
L 233.107074 -42.730783 
L 232.960623 -42.805318 
L 232.695617 -42.879853 
L 232.255985 -42.954388 
L 231.58343 -43.028923 
L 230.630047 -43.103458 
L 229.375025 -43.177994 
L 227.843631 -43.252529 
L 226.122228 -43.327064 
L 224.357145 -43.401599 
L 222.725876 -43.476134 
L 221.382825 -43.550669 
L 220.402599 -43.625205 
L 219.753085 -43.69974 
L 219.315976 -43.774275 
L 218.942801 -43.84881 
L 218.513947 -43.923345 
L 217.971463 -43.99788 
L 217.316369 -44.072416 
L 216.579342 -44.146951 
L 215.780456 -44.221486 
L 214.893185 -44.296021 
L 213.82633 -44.370556 
L 212.433986 -44.445091 
L 210.554805 -44.519627 
L 208.070334 -44.594162 
L 204.965292 -44.668697 
L 201.37228 -44.743232 
L 197.584591 -44.817767 
L 194.02182 -44.892303 
L 191.141788 -44.966838 
L 189.31644 -45.041373 
L 188.718242 -45.115908 
L 189.271184 -45.190443 
L 190.691532 -45.264978 
L 192.594402 -45.339514 
L 194.609242 -45.414049 
L 196.452935 -45.488584 
L 197.944294 -45.563119 
L 198.979544 -45.637654 
L 199.502635 -45.712189 
L 199.4945 -45.786725 
L 198.984637 -45.86126 
L 198.071362 -45.935795 
L 196.930798 -46.01033 
L 195.798552 -46.084865 
L 194.919637 -46.1594 
L 194.479218 -46.233936 
L 194.542445 -46.308471 
L 195.033868 -46.383006 
L 195.768451 -46.457541 
L 196.51688 -46.532076 
L 197.069604 -46.606611 
L 197.271446 -46.681147 
L 197.023699 -46.755682 
L 196.271548 -46.830217 
L 194.996548 -46.904752 
L 193.221544 -46.979287 
L 191.024208 -47.053822 
L 188.553989 -47.128358 
L 186.048853 -47.202893 
L 183.84181 -47.277428 
L 182.335584 -47.351963 
L 181.92525 -47.426498 
L 182.876897 -47.501033 
L 185.211747 -47.575569 
L 188.663098 -47.650104 
L 192.742448 -47.724639 
L 196.887589 -47.799174 
L 200.618198 -47.873709 
L 203.630456 -47.948245 
L 205.811396 -48.02278 
L 207.201444 -48.097315 
L 207.945379 -48.17185 
L 208.251785 -48.246385 
L 208.358174 -48.32092 
L 208.493927 -48.395456 
L 208.842735 -48.469991 
L 209.514551 -48.544526 
L 210.535806 -48.619061 
L 211.858987 -48.693596 
L 213.384989 -48.768131 
L 214.986863 -48.842667 
L 216.522238 -48.917202 
L 217.826223 -48.991737 
L 218.690795 -49.066272 
L 218.859406 -49.140807 
L 218.082024 -49.215342 
L 216.257742 -49.289878 
L 213.622221 -49.364413 
L 210.849473 -49.438948 
L 208.922556 -49.513483 
L 208.754104 -49.588018 
L 210.743021 -49.662553 
L 214.555247 -49.737089 
L 219.287308 -49.811624 
L 223.901676 -49.886159 
L 227.648548 -49.960694 
L 230.247769 -50.035229 
L 236.224731 -50.035229 
L 236.224731 -50.035229 
L 238.823952 -49.960694 
L 242.570824 -49.886159 
L 247.185192 -49.811624 
L 251.917253 -49.737089 
L 255.729479 -49.662553 
L 257.718396 -49.588018 
L 257.549944 -49.513483 
L 255.623027 -49.438948 
L 252.850279 -49.364413 
L 250.214758 -49.289878 
L 248.390476 -49.215342 
L 247.613094 -49.140807 
L 247.781705 -49.066272 
L 248.646277 -48.991737 
L 249.950262 -48.917202 
L 251.485637 -48.842667 
L 253.087511 -48.768131 
L 254.613513 -48.693596 
L 255.936694 -48.619061 
L 256.957949 -48.544526 
L 257.629765 -48.469991 
L 257.978573 -48.395456 
L 258.114326 -48.32092 
L 258.220715 -48.246385 
L 258.527121 -48.17185 
L 259.271056 -48.097315 
L 260.661104 -48.02278 
L 262.842044 -47.948245 
L 265.854302 -47.873709 
L 269.584911 -47.799174 
L 273.730052 -47.724639 
L 277.809402 -47.650104 
L 281.260753 -47.575569 
L 283.595603 -47.501033 
L 284.54725 -47.426498 
L 284.136916 -47.351963 
L 282.63069 -47.277428 
L 280.423647 -47.202893 
L 277.918511 -47.128358 
L 275.448292 -47.053822 
L 273.250956 -46.979287 
L 271.475952 -46.904752 
L 270.200952 -46.830217 
L 269.448801 -46.755682 
L 269.201054 -46.681147 
L 269.402896 -46.606611 
L 269.95562 -46.532076 
L 270.704049 -46.457541 
L 271.438632 -46.383006 
L 271.930055 -46.308471 
L 271.993282 -46.233936 
L 271.552863 -46.1594 
L 270.673948 -46.084865 
L 269.541702 -46.01033 
L 268.401138 -45.935795 
L 267.487863 -45.86126 
L 266.978 -45.786725 
L 266.969865 -45.712189 
L 267.492956 -45.637654 
L 268.528206 -45.563119 
L 270.019565 -45.488584 
L 271.863258 -45.414049 
L 273.878098 -45.339514 
L 275.780968 -45.264978 
L 277.201316 -45.190443 
L 277.754258 -45.115908 
L 277.15606 -45.041373 
L 275.330712 -44.966838 
L 272.45068 -44.892303 
L 268.887909 -44.817767 
L 265.10022 -44.743232 
L 261.507208 -44.668697 
L 258.402166 -44.594162 
L 255.917695 -44.519627 
L 254.038514 -44.445091 
L 252.64617 -44.370556 
L 251.579315 -44.296021 
L 250.692044 -44.221486 
L 249.893158 -44.146951 
L 249.156131 -44.072416 
L 248.501037 -43.99788 
L 247.958553 -43.923345 
L 247.529699 -43.84881 
L 247.156524 -43.774275 
L 246.719415 -43.69974 
L 246.069901 -43.625205 
L 245.089675 -43.550669 
L 243.746624 -43.476134 
L 242.115355 -43.401599 
L 240.350272 -43.327064 
L 238.628869 -43.252529 
L 237.097475 -43.177994 
L 235.842453 -43.103458 
L 234.88907 -43.028923 
L 234.216515 -42.954388 
L 233.776883 -42.879853 
L 233.511877 -42.805318 
L 233.365426 -42.730783 
L 233.291638 -42.656247 
z
" style="stroke: #3e3e3e; stroke-width: 3"/>
    </defs>
    <g clip-path="url(#pe1d65e15ed)">
     <use xlink:href="#mf690d0dce1" x="0" y="288" style="fill: #477ca8; stroke: #3e3e3e; stroke-width: 3"/>
    </g>
   </g>
   <g id="PolyCollection_3">
    <defs>
     <path id="mea41565d8a" d="M 361.517247 -43.207749 
L 361.510253 -43.207749 
L 360.980461 -44.140313 
L 351.366707 -45.072877 
L 310.20275 -46.005442 
L 313.602076 -46.938006 
L 348.608869 -47.87057 
L 359.104227 -48.803134 
L 360.992618 -49.735698 
L 361.281865 -50.668262 
L 361.414428 -51.600826 
L 361.404208 -52.53339 
L 361.457699 -53.465954 
L 361.430679 -54.398518 
L 361.439617 -55.331083 
L 361.441464 -56.263647 
L 361.463118 -57.196211 
L 361.487582 -58.128775 
L 361.450721 -59.061339 
L 361.48087 -59.993903 
L 361.507998 -60.926467 
L 361.469786 -61.859031 
L 361.509186 -62.791595 
L 361.502496 -63.724159 
L 361.512742 -64.656724 
L 361.493283 -65.589288 
L 361.484012 -66.521852 
L 361.507303 -67.454416 
L 361.503595 -68.38698 
L 361.512101 -69.319544 
L 361.51099 -70.252108 
L 361.51375 -71.184672 
L 361.51375 -72.117236 
L 361.513744 -73.0498 
L 361.504004 -73.982365 
L 361.51375 -74.914929 
L 361.507054 -75.847493 
L 361.512368 -76.780057 
L 361.509701 -77.712621 
L 361.513749 -78.645185 
L 361.503311 -79.577749 
L 361.513749 -80.510313 
L 361.512689 -81.442877 
L 361.51259 -82.375441 
L 361.499907 -83.308006 
L 361.513658 -84.24057 
L 361.51375 -85.173134 
L 361.51375 -86.105698 
L 361.51375 -87.038262 
L 361.51375 -87.970826 
L 361.51375 -88.90339 
L 361.51375 -89.835954 
L 361.51375 -90.768518 
L 361.51375 -91.701082 
L 361.51375 -92.633647 
L 361.51375 -93.566211 
L 361.51375 -94.498775 
L 361.51375 -95.431339 
L 361.51375 -96.363903 
L 361.51375 -97.296467 
L 361.51375 -98.229031 
L 361.51375 -99.161595 
L 361.51375 -100.094159 
L 361.51375 -101.026723 
L 361.51375 -101.959288 
L 361.51375 -102.891852 
L 361.51375 -103.824416 
L 361.51375 -104.75698 
L 361.51375 -105.689544 
L 361.51375 -106.622108 
L 361.51375 -107.554672 
L 361.51375 -108.487236 
L 361.51375 -109.4198 
L 361.51375 -110.352364 
L 361.51375 -111.284929 
L 361.51375 -112.217493 
L 361.51375 -113.150057 
L 361.51375 -114.082621 
L 361.51375 -115.015185 
L 361.51375 -115.947749 
L 361.51375 -116.880313 
L 361.51375 -117.812877 
L 361.51375 -118.745441 
L 361.51375 -119.678005 
L 361.51375 -120.61057 
L 361.51375 -121.543134 
L 361.51375 -122.475698 
L 361.51375 -123.408262 
L 361.51375 -124.340826 
L 361.51375 -125.27339 
L 361.51375 -126.205954 
L 361.51375 -127.138518 
L 361.513749 -128.071082 
L 361.503322 -129.003646 
L 361.513748 -129.936211 
L 361.51375 -130.868775 
L 361.51375 -131.801339 
L 361.51375 -132.733903 
L 361.51375 -133.666467 
L 361.512902 -134.599031 
L 361.512337 -135.531595 
L 361.515163 -135.531595 
L 361.515163 -135.531595 
L 361.514598 -134.599031 
L 361.51375 -133.666467 
L 361.51375 -132.733903 
L 361.51375 -131.801339 
L 361.51375 -130.868775 
L 361.513752 -129.936211 
L 361.524178 -129.003646 
L 361.513751 -128.071082 
L 361.51375 -127.138518 
L 361.51375 -126.205954 
L 361.51375 -125.27339 
L 361.51375 -124.340826 
L 361.51375 -123.408262 
L 361.51375 -122.475698 
L 361.51375 -121.543134 
L 361.51375 -120.61057 
L 361.51375 -119.678005 
L 361.51375 -118.745441 
L 361.51375 -117.812877 
L 361.51375 -116.880313 
L 361.51375 -115.947749 
L 361.51375 -115.015185 
L 361.51375 -114.082621 
L 361.51375 -113.150057 
L 361.51375 -112.217493 
L 361.51375 -111.284929 
L 361.51375 -110.352364 
L 361.51375 -109.4198 
L 361.51375 -108.487236 
L 361.51375 -107.554672 
L 361.51375 -106.622108 
L 361.51375 -105.689544 
L 361.51375 -104.75698 
L 361.51375 -103.824416 
L 361.51375 -102.891852 
L 361.51375 -101.959288 
L 361.51375 -101.026723 
L 361.51375 -100.094159 
L 361.51375 -99.161595 
L 361.51375 -98.229031 
L 361.51375 -97.296467 
L 361.51375 -96.363903 
L 361.51375 -95.431339 
L 361.51375 -94.498775 
L 361.51375 -93.566211 
L 361.51375 -92.633647 
L 361.51375 -91.701082 
L 361.51375 -90.768518 
L 361.51375 -89.835954 
L 361.51375 -88.90339 
L 361.51375 -87.970826 
L 361.51375 -87.038262 
L 361.51375 -86.105698 
L 361.51375 -85.173134 
L 361.513842 -84.24057 
L 361.527593 -83.308006 
L 361.51491 -82.375441 
L 361.514811 -81.442877 
L 361.513751 -80.510313 
L 361.524189 -79.577749 
L 361.513751 -78.645185 
L 361.517799 -77.712621 
L 361.515132 -76.780057 
L 361.520446 -75.847493 
L 361.51375 -74.914929 
L 361.523496 -73.982365 
L 361.513756 -73.0498 
L 361.51375 -72.117236 
L 361.51375 -71.184672 
L 361.51651 -70.252108 
L 361.515399 -69.319544 
L 361.523905 -68.38698 
L 361.520197 -67.454416 
L 361.543488 -66.521852 
L 361.534217 -65.589288 
L 361.514758 -64.656724 
L 361.525004 -63.724159 
L 361.518314 -62.791595 
L 361.557714 -61.859031 
L 361.519502 -60.926467 
L 361.54663 -59.993903 
L 361.576779 -59.061339 
L 361.539918 -58.128775 
L 361.564382 -57.196211 
L 361.586036 -56.263647 
L 361.587883 -55.331083 
L 361.596821 -54.398518 
L 361.569801 -53.465954 
L 361.623292 -52.53339 
L 361.613072 -51.600826 
L 361.745635 -50.668262 
L 362.034882 -49.735698 
L 363.923273 -48.803134 
L 374.418631 -47.87057 
L 409.425424 -46.938006 
L 412.82475 -46.005442 
L 371.660793 -45.072877 
L 362.047039 -44.140313 
L 361.517247 -43.207749 
z
" style="stroke: #3e3e3e; stroke-width: 3"/>
    </defs>
    <g clip-path="url(#pe1d65e15ed)">
     <use xlink:href="#mea41565d8a" x="0" y="288" style="fill: #59a257; stroke: #3e3e3e; stroke-width: 3"/>
    </g>
   </g>
   <g id="PolyCollection_4">
    <defs>
     <path id="mfd5d749cd5" d="M 489.79393 -43.59516 
L 489.78857 -43.59516 
L 489.552082 -44.757235 
L 438.48025 -45.91931 
L 453.360367 -47.081385 
L 487.356132 -48.24346 
L 489.013124 -49.405535 
L 489.309554 -50.56761 
L 489.60142 -51.729685 
L 489.587963 -52.89176 
L 489.670107 -54.053835 
L 489.70686 -55.21591 
L 489.680447 -56.377985 
L 489.778288 -57.54006 
L 489.700519 -58.702136 
L 489.731231 -59.864211 
L 489.718346 -61.026286 
L 489.77345 -62.188361 
L 489.717138 -63.350436 
L 489.766099 -64.512511 
L 489.785997 -65.674586 
L 489.761838 -66.836661 
L 489.791217 -67.998736 
L 489.791168 -69.160811 
L 489.772693 -70.322886 
L 489.765924 -71.484961 
L 489.782209 -72.647036 
L 489.789766 -73.809111 
L 489.791088 -74.971186 
L 489.7878 -76.133261 
L 489.771398 -77.295336 
L 489.791226 -78.457411 
L 489.79022 -79.619486 
L 489.7751 -80.781561 
L 489.788633 -81.943636 
L 489.79125 -83.105711 
L 489.79125 -84.267787 
L 489.79125 -85.429862 
L 489.79125 -86.591937 
L 489.79125 -87.754012 
L 489.79125 -88.916087 
L 489.790788 -90.078162 
L 489.790732 -91.240237 
L 489.79125 -92.402312 
L 489.79125 -93.564387 
L 489.775205 -94.726462 
L 489.79125 -95.888537 
L 489.79125 -97.050612 
L 489.79125 -98.212687 
L 489.79125 -99.374762 
L 489.79125 -100.536837 
L 489.79125 -101.698912 
L 489.79125 -102.860987 
L 489.79125 -104.023062 
L 489.79125 -105.185137 
L 489.79125 -106.347212 
L 489.79125 -107.509287 
L 489.79125 -108.671362 
L 489.79125 -109.833438 
L 489.79125 -110.995513 
L 489.79125 -112.157588 
L 489.79125 -113.319663 
L 489.79125 -114.481738 
L 489.79125 -115.643813 
L 489.79125 -116.805888 
L 489.79125 -117.967963 
L 489.79125 -119.130038 
L 489.79125 -120.292113 
L 489.79125 -121.454188 
L 489.79125 -122.616263 
L 489.79125 -123.778338 
L 489.79125 -124.940413 
L 489.79125 -126.102488 
L 489.79125 -127.264563 
L 489.79125 -128.426638 
L 489.776252 -129.588713 
L 489.79125 -130.750788 
L 489.79125 -131.912863 
L 489.79125 -133.074938 
L 489.79125 -134.237013 
L 489.79125 -135.399088 
L 489.79125 -136.561164 
L 489.79125 -137.723239 
L 489.79125 -138.885314 
L 489.79125 -140.047389 
L 489.79125 -141.209464 
L 489.79125 -142.371539 
L 489.79125 -143.533614 
L 489.79125 -144.695689 
L 489.79125 -145.857764 
L 489.79125 -147.019839 
L 489.79125 -148.181914 
L 489.79125 -149.343989 
L 489.79125 -150.506064 
L 489.79125 -151.668139 
L 489.79125 -152.830214 
L 489.79125 -153.992289 
L 489.79125 -155.154364 
L 489.79125 -156.316439 
L 489.791177 -157.478514 
L 489.789078 -158.640589 
L 489.793422 -158.640589 
L 489.793422 -158.640589 
L 489.791323 -157.478514 
L 489.79125 -156.316439 
L 489.79125 -155.154364 
L 489.79125 -153.992289 
L 489.79125 -152.830214 
L 489.79125 -151.668139 
L 489.79125 -150.506064 
L 489.79125 -149.343989 
L 489.79125 -148.181914 
L 489.79125 -147.019839 
L 489.79125 -145.857764 
L 489.79125 -144.695689 
L 489.79125 -143.533614 
L 489.79125 -142.371539 
L 489.79125 -141.209464 
L 489.79125 -140.047389 
L 489.79125 -138.885314 
L 489.79125 -137.723239 
L 489.79125 -136.561164 
L 489.79125 -135.399088 
L 489.79125 -134.237013 
L 489.79125 -133.074938 
L 489.79125 -131.912863 
L 489.79125 -130.750788 
L 489.806248 -129.588713 
L 489.79125 -128.426638 
L 489.79125 -127.264563 
L 489.79125 -126.102488 
L 489.79125 -124.940413 
L 489.79125 -123.778338 
L 489.79125 -122.616263 
L 489.79125 -121.454188 
L 489.79125 -120.292113 
L 489.79125 -119.130038 
L 489.79125 -117.967963 
L 489.79125 -116.805888 
L 489.79125 -115.643813 
L 489.79125 -114.481738 
L 489.79125 -113.319663 
L 489.79125 -112.157588 
L 489.79125 -110.995513 
L 489.79125 -109.833438 
L 489.79125 -108.671362 
L 489.79125 -107.509287 
L 489.79125 -106.347212 
L 489.79125 -105.185137 
L 489.79125 -104.023062 
L 489.79125 -102.860987 
L 489.79125 -101.698912 
L 489.79125 -100.536837 
L 489.79125 -99.374762 
L 489.79125 -98.212687 
L 489.79125 -97.050612 
L 489.79125 -95.888537 
L 489.807295 -94.726462 
L 489.79125 -93.564387 
L 489.79125 -92.402312 
L 489.791768 -91.240237 
L 489.791712 -90.078162 
L 489.79125 -88.916087 
L 489.79125 -87.754012 
L 489.79125 -86.591937 
L 489.79125 -85.429862 
L 489.79125 -84.267787 
L 489.79125 -83.105711 
L 489.793867 -81.943636 
L 489.8074 -80.781561 
L 489.79228 -79.619486 
L 489.791274 -78.457411 
L 489.811102 -77.295336 
L 489.7947 -76.133261 
L 489.791412 -74.971186 
L 489.792734 -73.809111 
L 489.800291 -72.647036 
L 489.816576 -71.484961 
L 489.809807 -70.322886 
L 489.791332 -69.160811 
L 489.791283 -67.998736 
L 489.820662 -66.836661 
L 489.796503 -65.674586 
L 489.816401 -64.512511 
L 489.865362 -63.350436 
L 489.80905 -62.188361 
L 489.864154 -61.026286 
L 489.851269 -59.864211 
L 489.881981 -58.702136 
L 489.804212 -57.54006 
L 489.902053 -56.377985 
L 489.87564 -55.21591 
L 489.912393 -54.053835 
L 489.994537 -52.89176 
L 489.98108 -51.729685 
L 490.272946 -50.56761 
L 490.569376 -49.405535 
L 492.226368 -48.24346 
L 526.222133 -47.081385 
L 541.10225 -45.91931 
L 490.030418 -44.757235 
L 489.79393 -43.59516 
z
" style="stroke: #3e3e3e; stroke-width: 3"/>
    </defs>
    <g clip-path="url(#pe1d65e15ed)">
     <use xlink:href="#mfd5d749cd5" x="0" y="288" style="fill: #905998; stroke: #3e3e3e; stroke-width: 3"/>
    </g>
   </g>
   <g id="PolyCollection_5">
    <defs>
     <path id="m318a1b688f" d="M 618.284513 -44.163957 
L 617.852987 -44.163957 
L 610.651839 -44.683261 
L 591.644844 -45.202566 
L 566.75775 -45.72187 
L 569.373772 -46.241175 
L 584.413423 -46.760479 
L 597.106301 -47.279784 
L 606.21613 -47.799088 
L 610.446661 -48.318393 
L 612.828585 -48.837697 
L 614.77774 -49.357002 
L 615.656703 -49.876306 
L 616.589515 -50.395611 
L 616.916216 -50.914915 
L 617.063425 -51.43422 
L 617.525149 -51.953524 
L 617.635173 -52.472829 
L 617.735461 -52.992133 
L 617.768739 -53.511438 
L 617.797769 -54.030742 
L 617.793181 -54.550047 
L 617.758923 -55.069351 
L 617.907745 -55.588656 
L 617.986134 -56.10796 
L 617.992098 -56.627265 
L 617.966327 -57.146569 
L 618.032152 -57.665874 
L 617.999591 -58.185178 
L 618.015074 -58.704483 
L 618.027415 -59.223787 
L 618.0491 -59.743092 
L 618.041197 -60.262396 
L 618.060254 -60.781701 
L 618.049767 -61.301005 
L 618.03317 -61.82031 
L 618.057681 -62.339614 
L 618.057688 -62.858919 
L 618.057986 -63.378223 
L 618.06819 -63.897528 
L 618.06875 -64.416832 
L 618.068749 -64.936137 
L 618.067366 -65.455441 
L 618.058785 -65.974746 
L 618.058661 -66.49405 
L 618.065738 -67.013355 
L 618.051519 -67.532659 
L 618.065854 -68.051964 
L 618.068747 -68.571268 
L 618.06875 -69.090573 
L 618.06875 -69.609877 
L 618.06875 -70.129182 
L 618.06875 -70.648486 
L 618.06875 -71.167791 
L 618.06875 -71.687095 
L 618.06875 -72.2064 
L 618.06875 -72.725704 
L 618.06875 -73.245009 
L 618.06875 -73.764313 
L 618.06875 -74.283618 
L 618.06875 -74.802922 
L 618.06875 -75.322227 
L 618.06875 -75.841531 
L 618.06875 -76.360836 
L 618.06875 -76.88014 
L 618.06875 -77.399445 
L 618.06875 -77.918749 
L 618.06875 -78.438054 
L 618.06875 -78.957359 
L 618.06875 -79.476663 
L 618.06875 -79.995968 
L 618.06875 -80.515272 
L 618.06875 -81.034577 
L 618.06875 -81.553881 
L 618.06875 -82.073186 
L 618.06875 -82.59249 
L 618.06875 -83.111795 
L 618.06875 -83.631099 
L 618.068748 -84.150404 
L 618.066564 -84.669708 
L 618.060139 -85.189013 
L 618.068622 -85.708317 
L 618.06875 -86.227622 
L 618.06875 -86.746926 
L 618.06875 -87.266231 
L 618.06875 -87.785535 
L 618.06875 -88.30484 
L 618.06875 -88.824144 
L 618.06875 -89.343449 
L 618.06875 -89.862753 
L 618.06875 -90.382058 
L 618.06875 -90.901362 
L 618.06875 -91.420667 
L 618.06875 -91.939971 
L 618.06875 -92.459276 
L 618.06875 -92.97858 
L 618.06875 -93.497885 
L 618.06875 -94.017189 
L 618.068497 -94.536494 
L 618.059092 -95.055798 
L 618.067355 -95.575103 
L 618.070145 -95.575103 
L 618.070145 -95.575103 
L 618.078408 -95.055798 
L 618.069003 -94.536494 
L 618.06875 -94.017189 
L 618.06875 -93.497885 
L 618.06875 -92.97858 
L 618.06875 -92.459276 
L 618.06875 -91.939971 
L 618.06875 -91.420667 
L 618.06875 -90.901362 
L 618.06875 -90.382058 
L 618.06875 -89.862753 
L 618.06875 -89.343449 
L 618.06875 -88.824144 
L 618.06875 -88.30484 
L 618.06875 -87.785535 
L 618.06875 -87.266231 
L 618.06875 -86.746926 
L 618.06875 -86.227622 
L 618.068878 -85.708317 
L 618.077361 -85.189013 
L 618.070936 -84.669708 
L 618.068752 -84.150404 
L 618.06875 -83.631099 
L 618.06875 -83.111795 
L 618.06875 -82.59249 
L 618.06875 -82.073186 
L 618.06875 -81.553881 
L 618.06875 -81.034577 
L 618.06875 -80.515272 
L 618.06875 -79.995968 
L 618.06875 -79.476663 
L 618.06875 -78.957359 
L 618.06875 -78.438054 
L 618.06875 -77.918749 
L 618.06875 -77.399445 
L 618.06875 -76.88014 
L 618.06875 -76.360836 
L 618.06875 -75.841531 
L 618.06875 -75.322227 
L 618.06875 -74.802922 
L 618.06875 -74.283618 
L 618.06875 -73.764313 
L 618.06875 -73.245009 
L 618.06875 -72.725704 
L 618.06875 -72.2064 
L 618.06875 -71.687095 
L 618.06875 -71.167791 
L 618.06875 -70.648486 
L 618.06875 -70.129182 
L 618.06875 -69.609877 
L 618.06875 -69.090573 
L 618.068753 -68.571268 
L 618.071646 -68.051964 
L 618.085981 -67.532659 
L 618.071762 -67.013355 
L 618.078839 -66.49405 
L 618.078715 -65.974746 
L 618.070134 -65.455441 
L 618.068751 -64.936137 
L 618.06875 -64.416832 
L 618.06931 -63.897528 
L 618.079514 -63.378223 
L 618.079812 -62.858919 
L 618.079819 -62.339614 
L 618.10433 -61.82031 
L 618.087733 -61.301005 
L 618.077246 -60.781701 
L 618.096303 -60.262396 
L 618.0884 -59.743092 
L 618.110085 -59.223787 
L 618.122426 -58.704483 
L 618.137909 -58.185178 
L 618.105348 -57.665874 
L 618.171173 -57.146569 
L 618.145402 -56.627265 
L 618.151366 -56.10796 
L 618.229755 -55.588656 
L 618.378577 -55.069351 
L 618.344319 -54.550047 
L 618.339731 -54.030742 
L 618.368761 -53.511438 
L 618.402039 -52.992133 
L 618.502327 -52.472829 
L 618.612351 -51.953524 
L 619.074075 -51.43422 
L 619.221284 -50.914915 
L 619.547985 -50.395611 
L 620.480797 -49.876306 
L 621.35976 -49.357002 
L 623.308915 -48.837697 
L 625.690839 -48.318393 
L 629.92137 -47.799088 
L 639.031199 -47.279784 
L 651.724077 -46.760479 
L 666.763728 -46.241175 
L 669.37975 -45.72187 
L 644.492656 -45.202566 
L 625.485661 -44.683261 
L 618.284513 -44.163957 
z
" style="stroke: #3e3e3e; stroke-width: 3"/>
    </defs>
    <g clip-path="url(#pe1d65e15ed)">
     <use xlink:href="#m318a1b688f" x="0" y="288" style="fill: #df7f20; stroke: #3e3e3e; stroke-width: 3"/>
    </g>
   </g>
   <g id="PolyCollection_6">
    <defs>
     <path id="m67b3825330" d="M 797.65725 -45.811304 
L 695.03525 -45.811304 
L 734.724759 -47.758545 
L 746.06349 -49.705787 
L 746.089893 -51.653028 
L 746.297927 -53.600269 
L 746.275426 -55.54751 
L 746.34625 -57.494751 
L 746.283151 -59.441992 
L 746.34625 -61.389234 
L 746.34625 -63.336475 
L 746.34625 -65.283716 
L 746.34625 -67.230957 
L 746.34625 -69.178198 
L 746.34625 -71.12544 
L 746.34625 -73.072681 
L 746.34625 -75.019922 
L 746.34625 -76.967163 
L 746.34625 -78.914404 
L 746.345802 -80.861646 
L 746.346249 -82.808887 
L 746.34625 -84.756128 
L 746.34625 -86.703369 
L 746.34625 -88.65061 
L 746.34625 -90.597851 
L 746.34625 -92.545093 
L 746.34625 -94.492334 
L 746.34625 -96.439575 
L 746.34625 -98.386816 
L 746.34625 -100.334057 
L 746.34625 -102.281299 
L 746.34625 -104.22854 
L 746.34625 -106.175781 
L 746.34625 -108.123022 
L 746.34625 -110.070263 
L 746.34625 -112.017505 
L 746.34625 -113.964746 
L 746.34625 -115.911987 
L 746.34625 -117.859228 
L 746.34625 -119.806469 
L 746.34625 -121.753711 
L 745.822642 -123.700952 
L 746.34625 -125.648193 
L 746.34625 -127.595434 
L 746.34625 -129.542675 
L 746.34625 -131.489916 
L 746.34625 -133.437158 
L 746.34625 -135.384399 
L 746.34625 -137.33164 
L 746.314732 -139.278881 
L 746.34625 -141.226122 
L 746.34625 -143.173364 
L 746.34625 -145.120605 
L 746.34625 -147.067846 
L 746.34625 -149.015087 
L 746.34625 -150.962328 
L 746.34625 -152.90957 
L 746.34625 -154.856811 
L 746.34625 -156.804052 
L 746.34625 -158.751293 
L 746.34625 -160.698534 
L 746.34625 -162.645775 
L 746.34625 -164.593017 
L 746.34625 -166.540258 
L 746.34625 -168.487499 
L 746.34625 -170.43474 
L 746.34625 -172.381981 
L 746.34625 -174.329223 
L 746.34625 -176.276464 
L 746.34625 -178.223705 
L 746.34625 -180.170946 
L 746.34625 -182.118187 
L 746.34625 -184.065429 
L 746.34625 -186.01267 
L 746.34625 -187.959911 
L 746.34625 -189.907152 
L 746.34625 -191.854393 
L 746.34625 -193.801634 
L 746.34625 -195.748876 
L 746.34625 -197.696117 
L 746.34625 -199.643358 
L 746.34625 -201.590599 
L 746.34625 -203.53784 
L 746.34625 -205.485082 
L 746.34625 -207.432323 
L 746.34625 -209.379564 
L 746.34625 -211.326805 
L 746.34625 -213.274046 
L 746.34625 -215.221288 
L 746.34625 -217.168529 
L 746.34625 -219.11577 
L 746.34625 -221.063011 
L 746.34625 -223.010252 
L 746.34625 -224.957493 
L 746.34625 -226.904735 
L 746.34625 -228.851976 
L 746.34625 -230.799217 
L 746.34625 -232.746458 
L 746.34625 -234.693699 
L 746.34625 -236.640941 
L 746.274385 -238.588182 
L 746.418115 -238.588182 
L 746.418115 -238.588182 
L 746.34625 -236.640941 
L 746.34625 -234.693699 
L 746.34625 -232.746458 
L 746.34625 -230.799217 
L 746.34625 -228.851976 
L 746.34625 -226.904735 
L 746.34625 -224.957493 
L 746.34625 -223.010252 
L 746.34625 -221.063011 
L 746.34625 -219.11577 
L 746.34625 -217.168529 
L 746.34625 -215.221288 
L 746.34625 -213.274046 
L 746.34625 -211.326805 
L 746.34625 -209.379564 
L 746.34625 -207.432323 
L 746.34625 -205.485082 
L 746.34625 -203.53784 
L 746.34625 -201.590599 
L 746.34625 -199.643358 
L 746.34625 -197.696117 
L 746.34625 -195.748876 
L 746.34625 -193.801634 
L 746.34625 -191.854393 
L 746.34625 -189.907152 
L 746.34625 -187.959911 
L 746.34625 -186.01267 
L 746.34625 -184.065429 
L 746.34625 -182.118187 
L 746.34625 -180.170946 
L 746.34625 -178.223705 
L 746.34625 -176.276464 
L 746.34625 -174.329223 
L 746.34625 -172.381981 
L 746.34625 -170.43474 
L 746.34625 -168.487499 
L 746.34625 -166.540258 
L 746.34625 -164.593017 
L 746.34625 -162.645775 
L 746.34625 -160.698534 
L 746.34625 -158.751293 
L 746.34625 -156.804052 
L 746.34625 -154.856811 
L 746.34625 -152.90957 
L 746.34625 -150.962328 
L 746.34625 -149.015087 
L 746.34625 -147.067846 
L 746.34625 -145.120605 
L 746.34625 -143.173364 
L 746.34625 -141.226122 
L 746.377768 -139.278881 
L 746.34625 -137.33164 
L 746.34625 -135.384399 
L 746.34625 -133.437158 
L 746.34625 -131.489916 
L 746.34625 -129.542675 
L 746.34625 -127.595434 
L 746.34625 -125.648193 
L 746.869858 -123.700952 
L 746.34625 -121.753711 
L 746.34625 -119.806469 
L 746.34625 -117.859228 
L 746.34625 -115.911987 
L 746.34625 -113.964746 
L 746.34625 -112.017505 
L 746.34625 -110.070263 
L 746.34625 -108.123022 
L 746.34625 -106.175781 
L 746.34625 -104.22854 
L 746.34625 -102.281299 
L 746.34625 -100.334057 
L 746.34625 -98.386816 
L 746.34625 -96.439575 
L 746.34625 -94.492334 
L 746.34625 -92.545093 
L 746.34625 -90.597851 
L 746.34625 -88.65061 
L 746.34625 -86.703369 
L 746.34625 -84.756128 
L 746.346251 -82.808887 
L 746.346698 -80.861646 
L 746.34625 -78.914404 
L 746.34625 -76.967163 
L 746.34625 -75.019922 
L 746.34625 -73.072681 
L 746.34625 -71.12544 
L 746.34625 -69.178198 
L 746.34625 -67.230957 
L 746.34625 -65.283716 
L 746.34625 -63.336475 
L 746.34625 -61.389234 
L 746.409349 -59.441992 
L 746.34625 -57.494751 
L 746.417074 -55.54751 
L 746.394573 -53.600269 
L 746.602607 -51.653028 
L 746.62901 -49.705787 
L 757.967741 -47.758545 
L 797.65725 -45.811304 
z
" style="stroke: #3e3e3e; stroke-width: 3"/>
    </defs>
    <g clip-path="url(#pe1d65e15ed)">
     <use xlink:href="#m67b3825330" x="0" y="288" style="fill: #e6e64c; stroke: #3e3e3e; stroke-width: 3"/>
    </g>
   </g>
   <g id="PolyCollection_7">
    <defs>
     <path id="m6ad8c8adef" d="M 874.879974 -43.856907 
L 874.367526 -43.856907 
L 874.016657 -43.937166 
L 873.348346 -44.017424 
L 872.245771 -44.097682 
L 870.683336 -44.177941 
L 868.808231 -44.258199 
L 866.952564 -44.338458 
L 865.526353 -44.418716 
L 864.821654 -44.498974 
L 864.83437 -44.579233 
L 865.204342 -44.659491 
L 865.289478 -44.739749 
L 864.317523 -44.820008 
L 861.567915 -44.900266 
L 856.586109 -44.980525 
L 849.431621 -45.060783 
L 840.883033 -45.141041 
L 832.444722 -45.2213 
L 826.02444 -45.301558 
L 823.31275 -45.381816 
L 825.113635 -45.462075 
L 830.985401 -45.542333 
L 839.422862 -45.622592 
L 848.493435 -45.70285 
L 856.563415 -45.783108 
L 862.737015 -45.863367 
L 866.871424 -45.943625 
L 869.305518 -46.023883 
L 870.543793 -46.104142 
L 871.055094 -46.1844 
L 871.20438 -46.264658 
L 871.252616 -46.344917 
L 871.362413 -46.425175 
L 871.593439 -46.505434 
L 871.907363 -46.585692 
L 872.200766 -46.66595 
L 872.359054 -46.746209 
L 872.305021 -46.826467 
L 872.019021 -46.906725 
L 871.527315 -46.986984 
L 870.874821 -47.067242 
L 870.105471 -47.147501 
L 869.261661 -47.227759 
L 868.390294 -47.308017 
L 867.529118 -47.388276 
L 866.665009 -47.468534 
L 865.695838 -47.548792 
L 864.445373 -47.629051 
L 862.744907 -47.709309 
L 860.534931 -47.789568 
L 857.922195 -47.869826 
L 855.173213 -47.950084 
L 852.673693 -48.030343 
L 850.870847 -48.110601 
L 850.172414 -48.190859 
L 850.790472 -48.271118 
L 852.600887 -48.351376 
L 855.138687 -48.431635 
L 857.779829 -48.511893 
L 860.018344 -48.592151 
L 861.666676 -48.67241 
L 862.860534 -48.752668 
L 863.889141 -48.832926 
L 864.983696 -48.913185 
L 866.201815 -48.993443 
L 867.453821 -49.073701 
L 868.610382 -49.15396 
L 869.59305 -49.234218 
L 870.394347 -49.314477 
L 871.044981 -49.394735 
L 871.577203 -49.474993 
L 872.012743 -49.555252 
L 872.368423 -49.63551 
L 872.659613 -49.715768 
L 872.894416 -49.796027 
L 873.067529 -49.876285 
L 873.164401 -49.956544 
L 873.175691 -50.036802 
L 873.112188 -50.11706 
L 873.009852 -50.197319 
L 872.921195 -50.277577 
L 872.897049 -50.357835 
L 872.967662 -50.438094 
L 873.132174 -50.518352 
L 873.361089 -50.598611 
L 873.609662 -50.678869 
L 873.835145 -50.759127 
L 874.01007 -50.839386 
L 874.127116 -50.919644 
L 874.196042 -50.999902 
L 874.236236 -51.080161 
L 874.268473 -51.160419 
L 874.308042 -51.240678 
L 874.360699 -51.320936 
L 874.42267 -51.401194 
L 874.484629 -51.481453 
L 874.537357 -51.561711 
L 874.575847 -51.641969 
L 874.600113 -51.722228 
L 874.613393 -51.802486 
L 874.634107 -51.802486 
L 874.634107 -51.802486 
L 874.647387 -51.722228 
L 874.671653 -51.641969 
L 874.710143 -51.561711 
L 874.762871 -51.481453 
L 874.82483 -51.401194 
L 874.886801 -51.320936 
L 874.939458 -51.240678 
L 874.979027 -51.160419 
L 875.011264 -51.080161 
L 875.051458 -50.999902 
L 875.120384 -50.919644 
L 875.23743 -50.839386 
L 875.412355 -50.759127 
L 875.637838 -50.678869 
L 875.886411 -50.598611 
L 876.115326 -50.518352 
L 876.279838 -50.438094 
L 876.350451 -50.357835 
L 876.326305 -50.277577 
L 876.237648 -50.197319 
L 876.135312 -50.11706 
L 876.071809 -50.036802 
L 876.083099 -49.956544 
L 876.179971 -49.876285 
L 876.353084 -49.796027 
L 876.587887 -49.715768 
L 876.879077 -49.63551 
L 877.234757 -49.555252 
L 877.670297 -49.474993 
L 878.202519 -49.394735 
L 878.853153 -49.314477 
L 879.65445 -49.234218 
L 880.637118 -49.15396 
L 881.793679 -49.073701 
L 883.045685 -48.993443 
L 884.263804 -48.913185 
L 885.358359 -48.832926 
L 886.386966 -48.752668 
L 887.580824 -48.67241 
L 889.229156 -48.592151 
L 891.467671 -48.511893 
L 894.108813 -48.431635 
L 896.646613 -48.351376 
L 898.457028 -48.271118 
L 899.075086 -48.190859 
L 898.376653 -48.110601 
L 896.573807 -48.030343 
L 894.074287 -47.950084 
L 891.325305 -47.869826 
L 888.712569 -47.789568 
L 886.502593 -47.709309 
L 884.802127 -47.629051 
L 883.551662 -47.548792 
L 882.582491 -47.468534 
L 881.718382 -47.388276 
L 880.857206 -47.308017 
L 879.985839 -47.227759 
L 879.142029 -47.147501 
L 878.372679 -47.067242 
L 877.720185 -46.986984 
L 877.228479 -46.906725 
L 876.942479 -46.826467 
L 876.888446 -46.746209 
L 877.046734 -46.66595 
L 877.340137 -46.585692 
L 877.654061 -46.505434 
L 877.885087 -46.425175 
L 877.994884 -46.344917 
L 878.04312 -46.264658 
L 878.192406 -46.1844 
L 878.703707 -46.104142 
L 879.941982 -46.023883 
L 882.376076 -45.943625 
L 886.510485 -45.863367 
L 892.684085 -45.783108 
L 900.754065 -45.70285 
L 909.824638 -45.622592 
L 918.262099 -45.542333 
L 924.133865 -45.462075 
L 925.93475 -45.381816 
L 923.22306 -45.301558 
L 916.802778 -45.2213 
L 908.364467 -45.141041 
L 899.815879 -45.060783 
L 892.661391 -44.980525 
L 887.679585 -44.900266 
L 884.929977 -44.820008 
L 883.958022 -44.739749 
L 884.043158 -44.659491 
L 884.41313 -44.579233 
L 884.425846 -44.498974 
L 883.721147 -44.418716 
L 882.294936 -44.338458 
L 880.439269 -44.258199 
L 878.564164 -44.177941 
L 877.001729 -44.097682 
L 875.899154 -44.017424 
L 875.230843 -43.937166 
L 874.879974 -43.856907 
z
" style="stroke: #3e3e3e; stroke-width: 3"/>
    </defs>
    <g clip-path="url(#pe1d65e15ed)">
     <use xlink:href="#m6ad8c8adef" x="0" y="288" style="fill: #965a38; stroke: #3e3e3e; stroke-width: 3"/>
    </g>
   </g>
   <g id="PolyCollection_8">
    <defs>
     <path id="m022bd2ff91" d="M 1002.928735 -42.351818 
L 1002.873765 -42.351818 
L 1002.826363 -42.441888 
L 1002.726605 -42.531958 
L 1002.552375 -42.622028 
L 1002.303298 -42.712098 
L 1002.019178 -42.802168 
L 1001.775073 -42.892238 
L 1001.644639 -42.982308 
L 1001.654843 -43.072378 
L 1001.769219 -43.162448 
L 1001.911665 -43.252518 
L 1002.006055 -43.342588 
L 1001.99934 -43.432658 
L 1001.85619 -43.522728 
L 1001.531999 -43.612798 
L 1000.936835 -43.702868 
L 999.90617 -43.792938 
L 998.200528 -43.883008 
L 995.559234 -43.973078 
L 991.82078 -44.063148 
L 987.079835 -44.153218 
L 981.791669 -44.243288 
L 976.724374 -44.333358 
L 972.747047 -44.423428 
L 970.557137 -44.513498 
L 970.466381 -44.603568 
L 972.292857 -44.693638 
L 975.381139 -44.783708 
L 978.806091 -44.873777 
L 981.753912 -44.963847 
L 983.886191 -45.053917 
L 985.412351 -45.143987 
L 986.804414 -45.234057 
L 988.400962 -45.324127 
L 990.215533 -45.414197 
L 992.030333 -45.504267 
L 993.608319 -45.594337 
L 994.833959 -45.684407 
L 995.725488 -45.774477 
L 996.361785 -45.864547 
L 996.788524 -45.954617 
L 996.967111 -46.044687 
L 996.813185 -46.134757 
L 996.309228 -46.224827 
L 995.597173 -46.314897 
L 994.945771 -46.404967 
L 994.587265 -46.495037 
L 994.554823 -46.585107 
L 994.676008 -46.675177 
L 994.730123 -46.765247 
L 994.601844 -46.855317 
L 994.255168 -46.945387 
L 993.523597 -47.035457 
L 991.903202 -47.125527 
L 988.595033 -47.215597 
L 982.917044 -47.305667 
L 974.923478 -47.395737 
L 965.798814 -47.485807 
L 957.616796 -47.575877 
L 952.483669 -47.665947 
L 951.59025 -47.756017 
L 954.771492 -47.846087 
L 960.738059 -47.936157 
L 967.679728 -48.026227 
L 973.873001 -48.116297 
L 978.147651 -48.206367 
L 980.200153 -48.296437 
L 980.66781 -48.386507 
L 980.822381 -48.476577 
L 981.919613 -48.566646 
L 984.543018 -48.656716 
L 988.369045 -48.746786 
L 992.491406 -48.836856 
L 996.019438 -48.926926 
L 998.510086 -49.016996 
L 1000.013902 -49.107066 
L 1000.84446 -49.197136 
L 1001.31827 -49.287206 
L 1001.622969 -49.377276 
L 1001.8208 -49.467346 
L 1001.917223 -49.557416 
L 1001.92737 -49.647486 
L 1001.903481 -49.737556 
L 1001.916393 -49.827626 
L 1002.012575 -49.917696 
L 1002.184889 -50.007766 
L 1002.381708 -50.097836 
L 1002.543815 -50.187906 
L 1002.637774 -50.277976 
L 1002.665991 -50.368046 
L 1002.656395 -50.458116 
L 1002.644081 -50.548186 
L 1002.654288 -50.638256 
L 1002.693021 -50.728326 
L 1002.749138 -50.818396 
L 1002.805261 -50.908466 
L 1002.848855 -50.998536 
L 1002.876427 -51.088606 
L 1002.890998 -51.178676 
L 1002.897542 -51.268746 
L 1002.904958 -51.268746 
L 1002.904958 -51.268746 
L 1002.911502 -51.178676 
L 1002.926073 -51.088606 
L 1002.953645 -50.998536 
L 1002.997239 -50.908466 
L 1003.053362 -50.818396 
L 1003.109479 -50.728326 
L 1003.148212 -50.638256 
L 1003.158419 -50.548186 
L 1003.146105 -50.458116 
L 1003.136509 -50.368046 
L 1003.164726 -50.277976 
L 1003.258685 -50.187906 
L 1003.420792 -50.097836 
L 1003.617611 -50.007766 
L 1003.789925 -49.917696 
L 1003.886107 -49.827626 
L 1003.899019 -49.737556 
L 1003.87513 -49.647486 
L 1003.885277 -49.557416 
L 1003.9817 -49.467346 
L 1004.179531 -49.377276 
L 1004.48423 -49.287206 
L 1004.95804 -49.197136 
L 1005.788598 -49.107066 
L 1007.292414 -49.016996 
L 1009.783062 -48.926926 
L 1013.311094 -48.836856 
L 1017.433455 -48.746786 
L 1021.259482 -48.656716 
L 1023.882887 -48.566646 
L 1024.980119 -48.476577 
L 1025.13469 -48.386507 
L 1025.602347 -48.296437 
L 1027.654849 -48.206367 
L 1031.929499 -48.116297 
L 1038.122772 -48.026227 
L 1045.064441 -47.936157 
L 1051.031008 -47.846087 
L 1054.21225 -47.756017 
L 1053.318831 -47.665947 
L 1048.185704 -47.575877 
L 1040.003686 -47.485807 
L 1030.879022 -47.395737 
L 1022.885456 -47.305667 
L 1017.207467 -47.215597 
L 1013.899298 -47.125527 
L 1012.278903 -47.035457 
L 1011.547332 -46.945387 
L 1011.200656 -46.855317 
L 1011.072377 -46.765247 
L 1011.126492 -46.675177 
L 1011.247677 -46.585107 
L 1011.215235 -46.495037 
L 1010.856729 -46.404967 
L 1010.205327 -46.314897 
L 1009.493272 -46.224827 
L 1008.989315 -46.134757 
L 1008.835389 -46.044687 
L 1009.013976 -45.954617 
L 1009.440715 -45.864547 
L 1010.077012 -45.774477 
L 1010.968541 -45.684407 
L 1012.194181 -45.594337 
L 1013.772167 -45.504267 
L 1015.586967 -45.414197 
L 1017.401538 -45.324127 
L 1018.998086 -45.234057 
L 1020.390149 -45.143987 
L 1021.916309 -45.053917 
L 1024.048588 -44.963847 
L 1026.996409 -44.873777 
L 1030.421361 -44.783708 
L 1033.509643 -44.693638 
L 1035.336119 -44.603568 
L 1035.245363 -44.513498 
L 1033.055453 -44.423428 
L 1029.078126 -44.333358 
L 1024.010831 -44.243288 
L 1018.722665 -44.153218 
L 1013.98172 -44.063148 
L 1010.243266 -43.973078 
L 1007.601972 -43.883008 
L 1005.89633 -43.792938 
L 1004.865665 -43.702868 
L 1004.270501 -43.612798 
L 1003.94631 -43.522728 
L 1003.80316 -43.432658 
L 1003.796445 -43.342588 
L 1003.890835 -43.252518 
L 1004.033281 -43.162448 
L 1004.147657 -43.072378 
L 1004.157861 -42.982308 
L 1004.027427 -42.892238 
L 1003.783322 -42.802168 
L 1003.499202 -42.712098 
L 1003.250125 -42.622028 
L 1003.075895 -42.531958 
L 1002.976137 -42.441888 
L 1002.928735 -42.351818 
z
" style="stroke: #3e3e3e; stroke-width: 3"/>
    </defs>
    <g clip-path="url(#pe1d65e15ed)">
     <use xlink:href="#m022bd2ff91" x="0" y="288" style="fill: #e890be; stroke: #3e3e3e; stroke-width: 3"/>
    </g>
   </g>
   <g id="line2d_16">
    <path d="M 104.95875 244.227314 
L 104.95875 237.885966 
" clip-path="url(#pe1d65e15ed)" style="fill: none; stroke: #3e3e3e; stroke-width: 4.5; stroke-linecap: round"/>
   </g>
   <g id="line2d_17">
    <path d="M 104.95875 242.485246 
L 104.95875 240.644951 
" clip-path="url(#pe1d65e15ed)" style="fill: none; stroke: #3e3e3e; stroke-width: 13.5; stroke-linecap: round"/>
   </g>
   <g id="line2d_18">
    <path d="M 104.95875 241.665161 
" clip-path="url(#pe1d65e15ed)" style="fill: none; stroke: #3e3e3e; stroke-width: 1.5; stroke-linecap: round"/>
    <defs>
     <path id="m635164ec54" d="M 5.625 0 
L -5.625 -0 
" style="stroke: #ffffff; stroke-width: 2.7"/>
    </defs>
    <g clip-path="url(#pe1d65e15ed)">
     <use xlink:href="#m635164ec54" x="104.95875" y="241.665161" style="fill: #ffffff; stroke: #ffffff; stroke-width: 2.7"/>
    </g>
   </g>
   <g id="line2d_19">
    <path d="M 233.23625 244.903946 
L 233.23625 238.404577 
" clip-path="url(#pe1d65e15ed)" style="fill: none; stroke: #3e3e3e; stroke-width: 4.5; stroke-linecap: round"/>
   </g>
   <g id="line2d_20">
    <path d="M 233.23625 242.73749 
L 233.23625 240.316156 
" clip-path="url(#pe1d65e15ed)" style="fill: none; stroke: #3e3e3e; stroke-width: 13.5; stroke-linecap: round"/>
   </g>
   <g id="line2d_21">
    <path d="M 233.23625 241.335665 
" clip-path="url(#pe1d65e15ed)" style="fill: none; stroke: #3e3e3e; stroke-width: 1.5; stroke-linecap: round"/>
    <g clip-path="url(#pe1d65e15ed)">
     <use xlink:href="#m635164ec54" x="233.23625" y="241.335665" style="fill: #ffffff; stroke: #ffffff; stroke-width: 2.7"/>
    </g>
   </g>
   <g id="line2d_22">
    <path d="M 361.51375 243.58324 
L 361.51375 239.410446 
" clip-path="url(#pe1d65e15ed)" style="fill: none; stroke: #3e3e3e; stroke-width: 4.5; stroke-linecap: round"/>
   </g>
   <g id="line2d_23">
    <path d="M 361.51375 242.022265 
L 361.51375 240.977501 
" clip-path="url(#pe1d65e15ed)" style="fill: none; stroke: #3e3e3e; stroke-width: 13.5; stroke-linecap: round"/>
   </g>
   <g id="line2d_24">
    <path d="M 361.51375 241.511175 
" clip-path="url(#pe1d65e15ed)" style="fill: none; stroke: #3e3e3e; stroke-width: 1.5; stroke-linecap: round"/>
    <g clip-path="url(#pe1d65e15ed)">
     <use xlink:href="#m635164ec54" x="361.51375" y="241.511175" style="fill: #ffffff; stroke: #ffffff; stroke-width: 2.7"/>
    </g>
   </g>
   <g id="line2d_25">
    <path d="M 489.79125 242.162252 
L 489.79125 240.898167 
" clip-path="url(#pe1d65e15ed)" style="fill: none; stroke: #3e3e3e; stroke-width: 4.5; stroke-linecap: round"/>
   </g>
   <g id="line2d_26">
    <path d="M 489.79125 241.688219 
L 489.79125 241.37196 
" clip-path="url(#pe1d65e15ed)" style="fill: none; stroke: #3e3e3e; stroke-width: 13.5; stroke-linecap: round"/>
   </g>
   <g id="line2d_27">
    <path d="M 489.79125 241.543701 
" clip-path="url(#pe1d65e15ed)" style="fill: none; stroke: #3e3e3e; stroke-width: 1.5; stroke-linecap: round"/>
    <g clip-path="url(#pe1d65e15ed)">
     <use xlink:href="#m635164ec54" x="489.79125" y="241.543701" style="fill: #ffffff; stroke: #ffffff; stroke-width: 2.7"/>
    </g>
   </g>
   <g id="line2d_28">
    <path d="M 618.06875 243.396237 
L 618.06875 238.96469 
" clip-path="url(#pe1d65e15ed)" style="fill: none; stroke: #3e3e3e; stroke-width: 4.5; stroke-linecap: round"/>
   </g>
   <g id="line2d_29">
    <path d="M 618.06875 242.285872 
L 618.06875 240.957399 
" clip-path="url(#pe1d65e15ed)" style="fill: none; stroke: #3e3e3e; stroke-width: 13.5; stroke-linecap: round"/>
   </g>
   <g id="line2d_30">
    <path d="M 618.06875 241.749101 
" clip-path="url(#pe1d65e15ed)" style="fill: none; stroke: #3e3e3e; stroke-width: 1.5; stroke-linecap: round"/>
    <g clip-path="url(#pe1d65e15ed)">
     <use xlink:href="#m635164ec54" x="618.06875" y="241.749101" style="fill: #ffffff; stroke: #ffffff; stroke-width: 2.7"/>
    </g>
   </g>
   <g id="line2d_31">
    <path d="M 746.34625 241.676466 
L 746.34625 241.151498 
" clip-path="url(#pe1d65e15ed)" style="fill: none; stroke: #3e3e3e; stroke-width: 4.5; stroke-linecap: round"/>
   </g>
   <g id="line2d_32">
    <path d="M 746.34625 241.480583 
L 746.34625 241.348931 
" clip-path="url(#pe1d65e15ed)" style="fill: none; stroke: #3e3e3e; stroke-width: 13.5; stroke-linecap: round"/>
   </g>
   <g id="line2d_33">
    <path d="M 746.34625 241.420607 
" clip-path="url(#pe1d65e15ed)" style="fill: none; stroke: #3e3e3e; stroke-width: 1.5; stroke-linecap: round"/>
    <g clip-path="url(#pe1d65e15ed)">
     <use xlink:href="#m635164ec54" x="746.34625" y="241.420607" style="fill: #ffffff; stroke: #ffffff; stroke-width: 2.7"/>
    </g>
   </g>
   <g id="line2d_34">
    <path d="M 874.62375 243.703286 
L 874.62375 236.63732 
" clip-path="url(#pe1d65e15ed)" style="fill: none; stroke: #3e3e3e; stroke-width: 4.5; stroke-linecap: round"/>
   </g>
   <g id="line2d_35">
    <path d="M 874.62375 242.659536 
L 874.62375 239.821135 
" clip-path="url(#pe1d65e15ed)" style="fill: none; stroke: #3e3e3e; stroke-width: 13.5; stroke-linecap: round"/>
   </g>
   <g id="line2d_36">
    <path d="M 874.62375 242.411739 
" clip-path="url(#pe1d65e15ed)" style="fill: none; stroke: #3e3e3e; stroke-width: 1.5; stroke-linecap: round"/>
    <g clip-path="url(#pe1d65e15ed)">
     <use xlink:href="#m635164ec54" x="874.62375" y="242.411739" style="fill: #ffffff; stroke: #ffffff; stroke-width: 2.7"/>
    </g>
   </g>
   <g id="line2d_37">
    <path d="M 1002.90125 245.208375 
L 1002.90125 237.171061 
" clip-path="url(#pe1d65e15ed)" style="fill: none; stroke: #3e3e3e; stroke-width: 4.5; stroke-linecap: round"/>
   </g>
   <g id="line2d_38">
    <path d="M 1002.90125 243.167026 
L 1002.90125 240.133019 
" clip-path="url(#pe1d65e15ed)" style="fill: none; stroke: #3e3e3e; stroke-width: 13.5; stroke-linecap: round"/>
   </g>
   <g id="line2d_39">
    <path d="M 1002.90125 240.517273 
" clip-path="url(#pe1d65e15ed)" style="fill: none; stroke: #3e3e3e; stroke-width: 1.5; stroke-linecap: round"/>
    <g clip-path="url(#pe1d65e15ed)">
     <use xlink:href="#m635164ec54" x="1002.90125" y="240.517273" style="fill: #ffffff; stroke: #ffffff; stroke-width: 2.7"/>
    </g>
   </g>
   <g id="patch_3">
    <path d="M 40.82 255.46 
L 40.82 39.6 
" style="fill: none; stroke: #262626; stroke-width: 1.25; stroke-linejoin: miter; stroke-linecap: square"/>
   </g>
   <g id="patch_4">
    <path d="M 1067.04 255.46 
L 1067.04 39.6 
" style="fill: none; stroke: #262626; stroke-width: 1.25; stroke-linejoin: miter; stroke-linecap: square"/>
   </g>
   <g id="patch_5">
    <path d="M 40.82 255.46 
L 1067.04 255.46 
" style="fill: none; stroke: #262626; stroke-width: 1.25; stroke-linejoin: miter; stroke-linecap: square"/>
   </g>
   <g id="patch_6">
    <path d="M 40.82 39.6 
L 1067.04 39.6 
" style="fill: none; stroke: #262626; stroke-width: 1.25; stroke-linejoin: miter; stroke-linecap: square"/>
   </g>
  </g>
  <g id="text_16">
   <!-- Violin Plot of all Continuous Variables -->
   <g style="fill: #262626" transform="translate(416.035547 16.496719) scale(0.15 -0.15)">
    <defs>
     <path id="ArialMT-56" d="M 1803 0 
L 28 4581 
L 684 4581 
L 1875 1253 
Q 2019 853 2116 503 
Q 2222 878 2363 1253 
L 3600 4581 
L 4219 4581 
L 2425 0 
L 1803 0 
z
" transform="scale(0.015625)"/>
     <path id="ArialMT-20" transform="scale(0.015625)"/>
     <path id="ArialMT-66" d="M 556 0 
L 556 2881 
L 59 2881 
L 59 3319 
L 556 3319 
L 556 3672 
Q 556 4006 616 4169 
Q 697 4388 901 4523 
Q 1106 4659 1475 4659 
Q 1713 4659 2000 4603 
L 1916 4113 
Q 1741 4144 1584 4144 
Q 1328 4144 1222 4034 
Q 1116 3925 1116 3625 
L 1116 3319 
L 1763 3319 
L 1763 2881 
L 1116 2881 
L 1116 0 
L 556 0 
z
" transform="scale(0.015625)"/>
     <path id="ArialMT-43" d="M 3763 1606 
L 4369 1453 
Q 4178 706 3683 314 
Q 3188 -78 2472 -78 
Q 1731 -78 1267 223 
Q 803 525 561 1097 
Q 319 1669 319 2325 
Q 319 3041 592 3573 
Q 866 4106 1370 4382 
Q 1875 4659 2481 4659 
Q 3169 4659 3637 4309 
Q 4106 3959 4291 3325 
L 3694 3184 
Q 3534 3684 3231 3912 
Q 2928 4141 2469 4141 
Q 1941 4141 1586 3887 
Q 1231 3634 1087 3207 
Q 944 2781 944 2328 
Q 944 1744 1114 1308 
Q 1284 872 1643 656 
Q 2003 441 2422 441 
Q 2931 441 3284 734 
Q 3638 1028 3763 1606 
z
" transform="scale(0.015625)"/>
     <path id="ArialMT-62" d="M 941 0 
L 419 0 
L 419 4581 
L 981 4581 
L 981 2947 
Q 1338 3394 1891 3394 
Q 2197 3394 2470 3270 
Q 2744 3147 2920 2923 
Q 3097 2700 3197 2384 
Q 3297 2069 3297 1709 
Q 3297 856 2875 390 
Q 2453 -75 1863 -75 
Q 1275 -75 941 416 
L 941 0 
z
M 934 1684 
Q 934 1088 1097 822 
Q 1363 388 1816 388 
Q 2184 388 2453 708 
Q 2722 1028 2722 1663 
Q 2722 2313 2464 2622 
Q 2206 2931 1841 2931 
Q 1472 2931 1203 2611 
Q 934 2291 934 1684 
z
" transform="scale(0.015625)"/>
    </defs>
    <use xlink:href="#ArialMT-56"/>
    <use xlink:href="#ArialMT-69" x="64.949219"/>
    <use xlink:href="#ArialMT-6f" x="87.166016"/>
    <use xlink:href="#ArialMT-6c" x="142.78125"/>
    <use xlink:href="#ArialMT-69" x="164.998047"/>
    <use xlink:href="#ArialMT-6e" x="187.214844"/>
    <use xlink:href="#ArialMT-20" x="242.830078"/>
    <use xlink:href="#ArialMT-50" x="270.613281"/>
    <use xlink:href="#ArialMT-6c" x="337.3125"/>
    <use xlink:href="#ArialMT-6f" x="359.529297"/>
    <use xlink:href="#ArialMT-74" x="415.144531"/>
    <use xlink:href="#ArialMT-20" x="442.927734"/>
    <use xlink:href="#ArialMT-6f" x="470.710938"/>
    <use xlink:href="#ArialMT-66" x="526.326172"/>
    <use xlink:href="#ArialMT-20" x="554.109375"/>
    <use xlink:href="#ArialMT-61" x="581.892578"/>
    <use xlink:href="#ArialMT-6c" x="637.507812"/>
    <use xlink:href="#ArialMT-6c" x="659.724609"/>
    <use xlink:href="#ArialMT-20" x="681.941406"/>
    <use xlink:href="#ArialMT-43" x="709.724609"/>
    <use xlink:href="#ArialMT-6f" x="781.941406"/>
    <use xlink:href="#ArialMT-6e" x="837.556641"/>
    <use xlink:href="#ArialMT-74" x="893.171875"/>
    <use xlink:href="#ArialMT-69" x="920.955078"/>
    <use xlink:href="#ArialMT-6e" x="943.171875"/>
    <use xlink:href="#ArialMT-75" x="998.787109"/>
    <use xlink:href="#ArialMT-6f" x="1054.402344"/>
    <use xlink:href="#ArialMT-75" x="1110.017578"/>
    <use xlink:href="#ArialMT-73" x="1165.632812"/>
    <use xlink:href="#ArialMT-20" x="1215.632812"/>
    <use xlink:href="#ArialMT-56" x="1243.416016"/>
    <use xlink:href="#ArialMT-61" x="1302.740234"/>
    <use xlink:href="#ArialMT-72" x="1358.355469"/>
    <use xlink:href="#ArialMT-69" x="1391.65625"/>
    <use xlink:href="#ArialMT-61" x="1413.873047"/>
    <use xlink:href="#ArialMT-62" x="1469.488281"/>
    <use xlink:href="#ArialMT-6c" x="1525.103516"/>
    <use xlink:href="#ArialMT-65" x="1547.320312"/>
    <use xlink:href="#ArialMT-73" x="1602.935547"/>
   </g>
  </g>
 </g>
 <defs>
  <clipPath id="pe1d65e15ed">
   <rect x="40.82" y="39.6" width="1026.22" height="215.86"/>
  </clipPath>
 </defs>
</svg>
